<svg xmlns="http://www.w3.org/2000/svg" xmlns:xlink="http://www.w3.org/1999/xlink" width="500" zoomAndPan="magnify" viewBox="0 0 375 374.999991" height="500" preserveAspectRatio="xMidYMid meet" version="1.0"><defs><g/><clipPath id="4ded0bf62e"><path d="M 48.292969 284 L 79 284 L 79 293 L 48.292969 293 Z M 48.292969 284 " clip-rule="nonzero"/></clipPath><clipPath id="25bd686391"><path d="M 48.292969 241 L 79 241 L 79 250 L 48.292969 250 Z M 48.292969 241 " clip-rule="nonzero"/></clipPath><clipPath id="f09b456cc0"><path d="M 48.292969 197 L 79 197 L 79 206 L 48.292969 206 Z M 48.292969 197 " clip-rule="nonzero"/></clipPath><clipPath id="a036352be6"><path d="M 48.292969 154 L 79 154 L 79 163 L 48.292969 163 Z M 48.292969 154 " clip-rule="nonzero"/></clipPath><clipPath id="1c86dacef7"><path d="M 48.292969 111 L 79 111 L 79 120 L 48.292969 120 Z M 48.292969 111 " clip-rule="nonzero"/></clipPath><clipPath id="172ddc940f"><path d="M 48.292969 67 L 79 67 L 79 76 L 48.292969 76 Z M 48.292969 67 " clip-rule="nonzero"/></clipPath><clipPath id="b3796389d4"><path d="M 48.292969 51.207031 L 326.542969 51.207031 L 326.542969 316.707031 L 48.292969 316.707031 Z M 48.292969 51.207031 " clip-rule="nonzero"/></clipPath></defs><path fill="#ff6d55" d="M 202.6875 291.652344 L 170.589844 291.652344 C 170.324219 291.652344 170.058594 291.628906 169.796875 291.574219 C 169.535156 291.523438 169.28125 291.445312 169.035156 291.34375 C 168.789062 291.242188 168.554688 291.117188 168.332031 290.96875 C 168.113281 290.820312 167.90625 290.652344 167.71875 290.460938 C 167.53125 290.273438 167.363281 290.066406 167.214844 289.84375 C 167.066406 289.625 166.941406 289.390625 166.839844 289.140625 C 166.734375 288.894531 166.660156 288.640625 166.605469 288.378906 C 166.554688 288.117188 166.527344 287.851562 166.527344 287.585938 L 166.527344 197.492188 C 166.527344 197.226562 166.554688 196.960938 166.605469 196.699219 C 166.660156 196.4375 166.734375 196.183594 166.839844 195.933594 C 166.941406 195.6875 167.066406 195.453125 167.214844 195.230469 C 167.363281 195.011719 167.53125 194.804688 167.71875 194.617188 C 167.90625 194.425781 168.113281 194.257812 168.332031 194.109375 C 168.554688 193.960938 168.789062 193.835938 169.035156 193.734375 C 169.28125 193.632812 169.535156 193.554688 169.796875 193.503906 C 170.058594 193.449219 170.324219 193.425781 170.589844 193.425781 L 202.6875 193.425781 C 202.953125 193.425781 203.21875 193.449219 203.480469 193.503906 C 203.742188 193.554688 203.996094 193.632812 204.242188 193.734375 C 204.488281 193.835938 204.722656 193.960938 204.945312 194.109375 C 205.164062 194.257812 205.371094 194.425781 205.558594 194.617188 C 205.746094 194.804688 205.914062 195.011719 206.0625 195.230469 C 206.210938 195.453125 206.335938 195.6875 206.4375 195.933594 C 206.542969 196.183594 206.617188 196.4375 206.671875 196.699219 C 206.722656 196.960938 206.75 197.226562 206.75 197.492188 L 206.75 287.585938 C 206.75 287.851562 206.722656 288.117188 206.671875 288.378906 C 206.617188 288.640625 206.542969 288.894531 206.4375 289.140625 C 206.335938 289.390625 206.210938 289.625 206.0625 289.84375 C 205.914062 290.066406 205.746094 290.273438 205.558594 290.460938 C 205.371094 290.652344 205.164062 290.820312 204.945312 290.96875 C 204.722656 291.117188 204.488281 291.242188 204.242188 291.34375 C 203.996094 291.445312 203.742188 291.523438 203.480469 291.574219 C 203.21875 291.628906 202.953125 291.652344 202.6875 291.652344 Z M 202.6875 291.652344 " fill-opacity="1" fill-rule="nonzero"/><path fill="#4c91d4" d="M 316.101562 291.652344 L 284.035156 291.652344 C 283.769531 291.652344 283.503906 291.628906 283.242188 291.574219 C 282.980469 291.523438 282.726562 291.445312 282.480469 291.34375 C 282.234375 291.242188 282 291.117188 281.78125 290.96875 C 281.558594 290.820312 281.351562 290.652344 281.164062 290.460938 C 280.976562 290.273438 280.808594 290.066406 280.660156 289.84375 C 280.511719 289.625 280.386719 289.390625 280.285156 289.140625 C 280.183594 288.894531 280.105469 288.640625 280.054688 288.378906 C 280 288.117188 279.976562 287.851562 279.976562 287.585938 L 279.976562 143.058594 C 279.976562 142.789062 280 142.527344 280.054688 142.265625 C 280.105469 142.003906 280.183594 141.75 280.285156 141.5 C 280.386719 141.253906 280.511719 141.019531 280.660156 140.796875 C 280.808594 140.578125 280.976562 140.371094 281.164062 140.183594 C 281.351562 139.992188 281.558594 139.824219 281.78125 139.675781 C 282 139.527344 282.234375 139.402344 282.480469 139.300781 C 282.726562 139.199219 282.980469 139.121094 283.242188 139.070312 C 283.503906 139.015625 283.769531 138.992188 284.035156 138.992188 L 316.101562 138.992188 C 316.367188 138.992188 316.632812 139.015625 316.894531 139.070312 C 317.15625 139.121094 317.410156 139.199219 317.65625 139.300781 C 317.902344 139.402344 318.136719 139.527344 318.355469 139.675781 C 318.578125 139.824219 318.785156 139.992188 318.972656 140.183594 C 319.160156 140.371094 319.328125 140.578125 319.476562 140.796875 C 319.625 141.019531 319.75 141.253906 319.851562 141.5 C 319.953125 141.75 320.03125 142.003906 320.082031 142.265625 C 320.136719 142.527344 320.160156 142.789062 320.160156 143.058594 L 320.160156 287.585938 C 320.160156 287.851562 320.136719 288.117188 320.082031 288.378906 C 320.03125 288.640625 319.953125 288.894531 319.851562 289.140625 C 319.75 289.390625 319.625 289.625 319.476562 289.84375 C 319.328125 290.066406 319.160156 290.273438 318.972656 290.460938 C 318.785156 290.652344 318.578125 290.820312 318.355469 290.96875 C 318.136719 291.117188 317.902344 291.242188 317.65625 291.34375 C 317.410156 291.445312 317.15625 291.523438 316.894531 291.574219 C 316.632812 291.628906 316.367188 291.652344 316.101562 291.652344 Z M 316.101562 291.652344 " fill-opacity="1" fill-rule="nonzero"/><path fill="#3c6a98" d="M 259.378906 291.652344 L 227.3125 291.652344 C 226.78125 291.644531 226.269531 291.535156 225.777344 291.324219 C 225.289062 291.113281 224.855469 290.820312 224.484375 290.4375 C 224.109375 290.058594 223.820312 289.621094 223.621094 289.128906 C 223.417969 288.632812 223.316406 288.121094 223.316406 287.585938 L 223.316406 228.304688 C 223.316406 228.035156 223.34375 227.773438 223.394531 227.511719 C 223.445312 227.25 223.523438 226.996094 223.625 226.746094 C 223.726562 226.5 223.851562 226.265625 224 226.042969 C 224.148438 225.824219 224.316406 225.617188 224.507812 225.429688 C 224.695312 225.238281 224.898438 225.070312 225.121094 224.921875 C 225.34375 224.773438 225.578125 224.648438 225.824219 224.546875 C 226.070312 224.445312 226.324219 224.367188 226.585938 224.316406 C 226.847656 224.261719 227.109375 224.238281 227.378906 224.238281 L 259.378906 224.238281 C 259.644531 224.238281 259.910156 224.261719 260.171875 224.316406 C 260.433594 224.367188 260.6875 224.445312 260.933594 224.546875 C 261.179688 224.648438 261.414062 224.773438 261.632812 224.921875 C 261.855469 225.070312 262.0625 225.238281 262.25 225.429688 C 262.4375 225.617188 262.605469 225.824219 262.753906 226.042969 C 262.902344 226.265625 263.027344 226.5 263.128906 226.746094 C 263.230469 226.996094 263.308594 227.25 263.359375 227.511719 C 263.414062 227.773438 263.4375 228.039062 263.4375 228.304688 L 263.4375 287.585938 C 263.4375 287.851562 263.414062 288.117188 263.359375 288.378906 C 263.308594 288.640625 263.230469 288.894531 263.128906 289.140625 C 263.027344 289.390625 262.902344 289.625 262.753906 289.84375 C 262.605469 290.066406 262.4375 290.273438 262.25 290.460938 C 262.0625 290.652344 261.855469 290.820312 261.632812 290.96875 C 261.414062 291.117188 261.179688 291.242188 260.933594 291.34375 C 260.6875 291.445312 260.433594 291.523438 260.171875 291.574219 C 259.910156 291.628906 259.644531 291.652344 259.378906 291.652344 Z M 259.378906 291.652344 " fill-opacity="1" fill-rule="nonzero"/><path fill="#fdd04c" d="M 145.964844 291.652344 L 113.867188 291.652344 C 113.601562 291.652344 113.335938 291.628906 113.074219 291.574219 C 112.8125 291.523438 112.558594 291.445312 112.3125 291.34375 C 112.066406 291.242188 111.832031 291.117188 111.609375 290.96875 C 111.390625 290.820312 111.183594 290.652344 110.996094 290.460938 C 110.808594 290.273438 110.636719 290.066406 110.492188 289.84375 C 110.34375 289.625 110.21875 289.390625 110.117188 289.140625 C 110.011719 288.894531 109.9375 288.640625 109.882812 288.378906 C 109.832031 288.117188 109.804688 287.851562 109.804688 287.585938 L 109.804688 264.128906 C 109.804688 263.859375 109.832031 263.59375 109.882812 263.332031 C 109.9375 263.070312 110.011719 262.816406 110.117188 262.570312 C 110.21875 262.324219 110.34375 262.089844 110.492188 261.867188 C 110.636719 261.644531 110.808594 261.441406 110.996094 261.25 C 111.183594 261.0625 111.390625 260.894531 111.609375 260.746094 C 111.832031 260.597656 112.066406 260.472656 112.3125 260.371094 C 112.558594 260.265625 112.8125 260.191406 113.074219 260.136719 C 113.335938 260.085938 113.601562 260.058594 113.867188 260.058594 L 145.964844 260.058594 C 146.230469 260.058594 146.496094 260.085938 146.757812 260.136719 C 147.019531 260.191406 147.273438 260.265625 147.519531 260.371094 C 147.765625 260.472656 148 260.597656 148.21875 260.746094 C 148.441406 260.894531 148.648438 261.0625 148.835938 261.25 C 149.023438 261.441406 149.191406 261.644531 149.339844 261.867188 C 149.488281 262.089844 149.613281 262.324219 149.714844 262.570312 C 149.820312 262.816406 149.894531 263.070312 149.949219 263.332031 C 150 263.59375 150.027344 263.859375 150.027344 264.128906 L 150.027344 287.585938 C 150.027344 287.851562 150 288.117188 149.949219 288.378906 C 149.894531 288.640625 149.820312 288.894531 149.714844 289.140625 C 149.613281 289.390625 149.488281 289.625 149.339844 289.84375 C 149.191406 290.066406 149.023438 290.273438 148.835938 290.460938 C 148.648438 290.652344 148.441406 290.820312 148.21875 290.96875 C 148 291.117188 147.765625 291.242188 147.519531 291.34375 C 147.273438 291.445312 147.019531 291.523438 146.757812 291.574219 C 146.496094 291.628906 146.230469 291.652344 145.964844 291.652344 Z M 145.964844 291.652344 " fill-opacity="1" fill-rule="nonzero"/><path fill="#4c91d4" d="M 283.417969 118.851562 C 283.152344 118.851562 282.886719 118.824219 282.625 118.773438 C 282.363281 118.71875 282.109375 118.644531 281.863281 118.539062 C 281.617188 118.4375 281.382812 118.3125 281.164062 118.164062 C 280.941406 118.015625 280.734375 117.847656 280.546875 117.660156 C 280.359375 117.46875 280.191406 117.265625 280.042969 117.042969 C 279.894531 116.820312 279.769531 116.585938 279.667969 116.339844 C 279.566406 116.09375 279.488281 115.839844 279.4375 115.578125 C 279.382812 115.316406 279.359375 115.050781 279.359375 114.785156 L 279.359375 74.894531 L 239.5625 74.894531 C 239.292969 74.894531 239.03125 74.867188 238.769531 74.816406 C 238.507812 74.761719 238.253906 74.6875 238.007812 74.582031 C 237.761719 74.480469 237.527344 74.355469 237.304688 74.207031 C 237.082031 74.058594 236.878906 73.890625 236.6875 73.703125 C 236.5 73.511719 236.332031 73.308594 236.183594 73.085938 C 236.035156 72.863281 235.910156 72.628906 235.808594 72.382812 C 235.707031 72.136719 235.628906 71.882812 235.578125 71.621094 C 235.527344 71.359375 235.5 71.09375 235.5 70.828125 C 235.5 70.558594 235.527344 70.292969 235.578125 70.03125 C 235.628906 69.769531 235.707031 69.515625 235.808594 69.269531 C 235.910156 69.023438 236.035156 68.789062 236.183594 68.566406 C 236.332031 68.34375 236.5 68.140625 236.6875 67.949219 C 236.878906 67.761719 237.082031 67.59375 237.304688 67.445312 C 237.527344 67.296875 237.761719 67.171875 238.007812 67.070312 C 238.253906 66.964844 238.507812 66.890625 238.769531 66.835938 C 239.03125 66.785156 239.292969 66.757812 239.5625 66.757812 L 283.417969 66.757812 C 283.683594 66.757812 283.949219 66.785156 284.210938 66.835938 C 284.472656 66.890625 284.726562 66.964844 284.972656 67.070312 C 285.21875 67.171875 285.453125 67.296875 285.675781 67.445312 C 285.898438 67.59375 286.101562 67.761719 286.289062 67.949219 C 286.480469 68.140625 286.648438 68.34375 286.796875 68.566406 C 286.945312 68.789062 287.070312 69.023438 287.171875 69.269531 C 287.273438 69.515625 287.347656 69.769531 287.402344 70.03125 C 287.453125 70.292969 287.480469 70.558594 287.480469 70.828125 L 287.480469 114.785156 C 287.480469 115.050781 287.453125 115.316406 287.402344 115.578125 C 287.347656 115.839844 287.273438 116.09375 287.171875 116.339844 C 287.070312 116.585938 286.945312 116.820312 286.796875 117.042969 C 286.648438 117.265625 286.480469 117.46875 286.289062 117.660156 C 286.101562 117.847656 285.898438 118.015625 285.675781 118.164062 C 285.453125 118.3125 285.21875 118.4375 284.972656 118.539062 C 284.726562 118.644531 284.472656 118.71875 284.210938 118.773438 C 283.949219 118.824219 283.683594 118.851562 283.417969 118.851562 Z M 283.417969 118.851562 " fill-opacity="1" fill-rule="nonzero"/><path fill="#4c91d4" d="M 95.933594 196.582031 C 95.539062 196.582031 95.152344 196.527344 94.773438 196.414062 C 94.390625 196.300781 94.035156 196.136719 93.707031 195.921875 C 93.375 195.703125 93.082031 195.445312 92.824219 195.144531 C 92.570312 194.839844 92.363281 194.507812 92.203125 194.144531 C 92.042969 193.78125 91.941406 193.40625 91.890625 193.011719 C 91.84375 192.617188 91.851562 192.226562 91.917969 191.835938 C 91.984375 191.445312 92.105469 191.074219 92.28125 190.71875 C 92.453125 190.363281 92.675781 190.039062 92.945312 189.75 L 149.601562 128.515625 C 149.96875 128.058594 150.417969 127.71875 150.953125 127.488281 C 151.488281 127.257812 152.042969 127.164062 152.625 127.210938 C 153.203125 127.226562 153.753906 127.351562 154.28125 127.597656 C 154.804688 127.839844 155.261719 128.179688 155.644531 128.613281 L 186.769531 164.402344 L 277.734375 70.046875 C 277.914062 69.835938 278.113281 69.648438 278.335938 69.480469 C 278.554688 69.316406 278.789062 69.171875 279.035156 69.050781 C 279.285156 68.933594 279.542969 68.839844 279.8125 68.773438 C 280.078125 68.707031 280.351562 68.667969 280.625 68.65625 C 280.902344 68.644531 281.175781 68.660156 281.449219 68.703125 C 281.722656 68.75 281.984375 68.820312 282.242188 68.917969 C 282.5 69.019531 282.746094 69.140625 282.980469 69.289062 C 283.210938 69.4375 283.425781 69.609375 283.625 69.800781 C 283.824219 69.996094 284 70.207031 284.152344 70.433594 C 284.308594 70.664062 284.4375 70.902344 284.546875 71.160156 C 284.652344 71.414062 284.730469 71.679688 284.78125 71.949219 C 284.832031 72.21875 284.859375 72.496094 284.855469 72.769531 C 284.851562 73.046875 284.820312 73.320312 284.761719 73.589844 C 284.703125 73.859375 284.617188 74.121094 284.503906 74.375 C 284.390625 74.625 284.253906 74.863281 284.09375 75.089844 C 283.933594 75.3125 283.75 75.519531 283.546875 75.707031 L 189.59375 173.316406 C 188.753906 174.132812 187.746094 174.546875 186.574219 174.554688 C 186 174.542969 185.453125 174.414062 184.929688 174.171875 C 184.410156 173.929688 183.960938 173.589844 183.585938 173.15625 L 152.527344 137.363281 L 98.921875 195.28125 C 98.539062 195.695312 98.085938 196.015625 97.566406 196.242188 C 97.042969 196.46875 96.5 196.582031 95.933594 196.582031 Z M 95.933594 196.582031 " fill-opacity="1" fill-rule="nonzero"/><g clip-path="url(#4ded0bf62e)"><path fill="#3c6a98" d="M 74.851562 292.597656 L 52.726562 292.597656 C 52.460938 292.597656 52.195312 292.570312 51.933594 292.519531 C 51.671875 292.464844 51.417969 292.390625 51.171875 292.289062 C 50.925781 292.183594 50.691406 292.058594 50.46875 291.910156 C 50.246094 291.761719 50.042969 291.59375 49.855469 291.40625 C 49.664062 291.214844 49.496094 291.011719 49.347656 290.789062 C 49.199219 290.566406 49.074219 290.332031 48.972656 290.085938 C 48.871094 289.839844 48.796875 289.585938 48.742188 289.324219 C 48.691406 289.0625 48.664062 288.796875 48.664062 288.53125 C 48.664062 288.261719 48.691406 288 48.742188 287.734375 C 48.796875 287.472656 48.871094 287.21875 48.972656 286.972656 C 49.074219 286.726562 49.199219 286.492188 49.347656 286.269531 C 49.496094 286.046875 49.664062 285.84375 49.855469 285.652344 C 50.042969 285.464844 50.246094 285.296875 50.46875 285.148438 C 50.691406 285 50.925781 284.875 51.171875 284.773438 C 51.417969 284.671875 51.671875 284.59375 51.933594 284.539062 C 52.195312 284.488281 52.460938 284.460938 52.726562 284.460938 L 74.851562 284.460938 C 75.117188 284.460938 75.378906 284.488281 75.640625 284.539062 C 75.902344 284.59375 76.15625 284.671875 76.402344 284.773438 C 76.648438 284.875 76.882812 285 77.105469 285.148438 C 77.328125 285.296875 77.53125 285.464844 77.722656 285.652344 C 77.910156 285.84375 78.078125 286.046875 78.226562 286.269531 C 78.375 286.492188 78.5 286.726562 78.601562 286.972656 C 78.703125 287.21875 78.78125 287.472656 78.832031 287.734375 C 78.882812 288 78.910156 288.261719 78.910156 288.53125 C 78.910156 288.796875 78.882812 289.0625 78.832031 289.324219 C 78.78125 289.585938 78.703125 289.839844 78.601562 290.085938 C 78.5 290.332031 78.375 290.566406 78.226562 290.789062 C 78.078125 291.011719 77.910156 291.214844 77.722656 291.40625 C 77.53125 291.59375 77.328125 291.761719 77.105469 291.910156 C 76.882812 292.058594 76.648438 292.183594 76.402344 292.289062 C 76.15625 292.390625 75.902344 292.464844 75.640625 292.519531 C 75.378906 292.570312 75.117188 292.597656 74.851562 292.597656 Z M 74.851562 292.597656 " fill-opacity="1" fill-rule="nonzero"/></g><g clip-path="url(#25bd686391)"><path fill="#3c6a98" d="M 74.851562 249.355469 L 52.726562 249.355469 C 52.460938 249.355469 52.195312 249.328125 51.933594 249.277344 C 51.671875 249.226562 51.417969 249.148438 51.171875 249.046875 C 50.925781 248.945312 50.691406 248.820312 50.46875 248.671875 C 50.246094 248.523438 50.042969 248.351562 49.855469 248.164062 C 49.664062 247.976562 49.496094 247.769531 49.347656 247.546875 C 49.199219 247.324219 49.074219 247.089844 48.972656 246.84375 C 48.871094 246.597656 48.796875 246.34375 48.742188 246.082031 C 48.691406 245.820312 48.664062 245.554688 48.664062 245.289062 C 48.664062 245.019531 48.691406 244.757812 48.742188 244.496094 C 48.796875 244.234375 48.871094 243.980469 48.972656 243.730469 C 49.074219 243.484375 49.199219 243.25 49.347656 243.027344 C 49.496094 242.808594 49.664062 242.601562 49.855469 242.414062 C 50.042969 242.222656 50.246094 242.054688 50.46875 241.90625 C 50.691406 241.757812 50.925781 241.632812 51.171875 241.53125 C 51.417969 241.429688 51.671875 241.351562 51.933594 241.300781 C 52.195312 241.246094 52.460938 241.222656 52.726562 241.222656 L 74.851562 241.222656 C 75.117188 241.222656 75.378906 241.246094 75.640625 241.300781 C 75.902344 241.351562 76.15625 241.429688 76.402344 241.53125 C 76.648438 241.632812 76.882812 241.757812 77.105469 241.90625 C 77.328125 242.054688 77.53125 242.222656 77.722656 242.414062 C 77.910156 242.601562 78.078125 242.808594 78.226562 243.027344 C 78.375 243.25 78.5 243.484375 78.601562 243.730469 C 78.703125 243.980469 78.78125 244.234375 78.832031 244.496094 C 78.882812 244.757812 78.910156 245.019531 78.910156 245.289062 C 78.910156 245.554688 78.882812 245.820312 78.832031 246.082031 C 78.78125 246.34375 78.703125 246.597656 78.601562 246.84375 C 78.5 247.089844 78.375 247.324219 78.226562 247.546875 C 78.078125 247.769531 77.910156 247.976562 77.722656 248.164062 C 77.53125 248.351562 77.328125 248.523438 77.105469 248.671875 C 76.882812 248.820312 76.648438 248.945312 76.402344 249.046875 C 76.15625 249.148438 75.902344 249.226562 75.640625 249.277344 C 75.378906 249.328125 75.117188 249.355469 74.851562 249.355469 Z M 74.851562 249.355469 " fill-opacity="1" fill-rule="nonzero"/></g><g clip-path="url(#f09b456cc0)"><path fill="#3c6a98" d="M 74.851562 205.917969 L 52.726562 205.917969 C 52.460938 205.917969 52.195312 205.894531 51.933594 205.839844 C 51.671875 205.789062 51.417969 205.710938 51.171875 205.609375 C 50.925781 205.507812 50.691406 205.382812 50.46875 205.234375 C 50.246094 205.085938 50.042969 204.917969 49.855469 204.726562 C 49.664062 204.539062 49.496094 204.332031 49.347656 204.109375 C 49.199219 203.890625 49.074219 203.65625 48.972656 203.40625 C 48.871094 203.160156 48.796875 202.90625 48.742188 202.644531 C 48.691406 202.382812 48.664062 202.117188 48.664062 201.851562 C 48.664062 201.585938 48.691406 201.320312 48.742188 201.058594 C 48.796875 200.796875 48.871094 200.542969 48.972656 200.296875 C 49.074219 200.046875 49.199219 199.8125 49.347656 199.59375 C 49.496094 199.371094 49.664062 199.164062 49.855469 198.976562 C 50.042969 198.785156 50.246094 198.617188 50.46875 198.46875 C 50.691406 198.320312 50.925781 198.195312 51.171875 198.09375 C 51.417969 197.992188 51.671875 197.914062 51.933594 197.863281 C 52.195312 197.8125 52.460938 197.785156 52.726562 197.785156 L 74.851562 197.785156 C 75.117188 197.785156 75.378906 197.8125 75.640625 197.863281 C 75.902344 197.914062 76.15625 197.992188 76.402344 198.09375 C 76.648438 198.195312 76.882812 198.320312 77.105469 198.46875 C 77.328125 198.617188 77.53125 198.785156 77.722656 198.976562 C 77.910156 199.164062 78.078125 199.371094 78.226562 199.59375 C 78.375 199.8125 78.5 200.046875 78.601562 200.296875 C 78.703125 200.542969 78.78125 200.796875 78.832031 201.058594 C 78.882812 201.320312 78.910156 201.585938 78.910156 201.851562 C 78.910156 202.117188 78.882812 202.382812 78.832031 202.644531 C 78.78125 202.90625 78.703125 203.160156 78.601562 203.40625 C 78.5 203.65625 78.375 203.890625 78.226562 204.109375 C 78.078125 204.332031 77.910156 204.539062 77.722656 204.726562 C 77.53125 204.917969 77.328125 205.085938 77.105469 205.234375 C 76.882812 205.382812 76.648438 205.507812 76.402344 205.609375 C 76.15625 205.710938 75.902344 205.789062 75.640625 205.839844 C 75.378906 205.894531 75.117188 205.917969 74.851562 205.917969 Z M 74.851562 205.917969 " fill-opacity="1" fill-rule="nonzero"/></g><g clip-path="url(#a036352be6)"><path fill="#3c6a98" d="M 74.851562 162.546875 L 52.726562 162.546875 C 52.460938 162.546875 52.195312 162.519531 51.933594 162.46875 C 51.671875 162.417969 51.417969 162.339844 51.171875 162.238281 C 50.925781 162.136719 50.691406 162.011719 50.46875 161.863281 C 50.246094 161.714844 50.042969 161.546875 49.855469 161.355469 C 49.664062 161.167969 49.496094 160.960938 49.347656 160.738281 C 49.199219 160.519531 49.074219 160.285156 48.972656 160.035156 C 48.871094 159.789062 48.796875 159.535156 48.742188 159.273438 C 48.691406 159.011719 48.664062 158.746094 48.664062 158.480469 C 48.664062 158.214844 48.691406 157.949219 48.742188 157.6875 C 48.796875 157.425781 48.871094 157.171875 48.972656 156.925781 C 49.074219 156.675781 49.199219 156.441406 49.347656 156.21875 C 49.496094 156 49.664062 155.792969 49.855469 155.605469 C 50.042969 155.414062 50.246094 155.246094 50.46875 155.097656 C 50.691406 154.949219 50.925781 154.824219 51.171875 154.722656 C 51.417969 154.621094 51.671875 154.542969 51.933594 154.492188 C 52.195312 154.4375 52.460938 154.414062 52.726562 154.414062 L 74.851562 154.414062 C 75.117188 154.414062 75.378906 154.4375 75.640625 154.492188 C 75.902344 154.542969 76.15625 154.621094 76.402344 154.722656 C 76.648438 154.824219 76.882812 154.949219 77.105469 155.097656 C 77.328125 155.246094 77.53125 155.414062 77.722656 155.605469 C 77.910156 155.792969 78.078125 156 78.226562 156.21875 C 78.375 156.441406 78.5 156.675781 78.601562 156.925781 C 78.703125 157.171875 78.78125 157.425781 78.832031 157.6875 C 78.882812 157.949219 78.910156 158.214844 78.910156 158.480469 C 78.910156 158.746094 78.882812 159.011719 78.832031 159.273438 C 78.78125 159.535156 78.703125 159.789062 78.601562 160.035156 C 78.5 160.285156 78.375 160.519531 78.226562 160.738281 C 78.078125 160.960938 77.910156 161.167969 77.722656 161.355469 C 77.53125 161.546875 77.328125 161.714844 77.105469 161.863281 C 76.882812 162.011719 76.648438 162.136719 76.402344 162.238281 C 76.15625 162.339844 75.902344 162.417969 75.640625 162.46875 C 75.378906 162.519531 75.117188 162.546875 74.851562 162.546875 Z M 74.851562 162.546875 " fill-opacity="1" fill-rule="nonzero"/></g><g clip-path="url(#1c86dacef7)"><path fill="#3c6a98" d="M 74.851562 119.207031 L 52.726562 119.207031 C 52.460938 119.207031 52.195312 119.183594 51.933594 119.128906 C 51.671875 119.078125 51.417969 119 51.171875 118.898438 C 50.925781 118.796875 50.691406 118.671875 50.46875 118.523438 C 50.246094 118.375 50.042969 118.207031 49.855469 118.015625 C 49.664062 117.828125 49.496094 117.621094 49.347656 117.402344 C 49.199219 117.179688 49.074219 116.945312 48.972656 116.699219 C 48.871094 116.449219 48.796875 116.195312 48.742188 115.933594 C 48.691406 115.671875 48.664062 115.410156 48.664062 115.140625 C 48.664062 114.875 48.691406 114.609375 48.742188 114.347656 C 48.796875 114.085938 48.871094 113.832031 48.972656 113.585938 C 49.074219 113.339844 49.199219 113.105469 49.347656 112.882812 C 49.496094 112.660156 49.664062 112.453125 49.855469 112.265625 C 50.042969 112.078125 50.246094 111.90625 50.46875 111.757812 C 50.691406 111.609375 50.925781 111.484375 51.171875 111.382812 C 51.417969 111.28125 51.671875 111.203125 51.933594 111.152344 C 52.195312 111.101562 52.460938 111.074219 52.726562 111.074219 L 74.851562 111.074219 C 75.117188 111.074219 75.378906 111.101562 75.640625 111.152344 C 75.902344 111.203125 76.15625 111.28125 76.402344 111.382812 C 76.648438 111.484375 76.882812 111.609375 77.105469 111.757812 C 77.328125 111.90625 77.53125 112.078125 77.722656 112.265625 C 77.910156 112.453125 78.078125 112.660156 78.226562 112.882812 C 78.375 113.105469 78.5 113.339844 78.601562 113.585938 C 78.703125 113.832031 78.78125 114.085938 78.832031 114.347656 C 78.882812 114.609375 78.910156 114.875 78.910156 115.140625 C 78.910156 115.410156 78.882812 115.671875 78.832031 115.933594 C 78.78125 116.195312 78.703125 116.449219 78.601562 116.699219 C 78.5 116.945312 78.375 117.179688 78.226562 117.402344 C 78.078125 117.621094 77.910156 117.828125 77.722656 118.015625 C 77.53125 118.207031 77.328125 118.375 77.105469 118.523438 C 76.882812 118.671875 76.648438 118.796875 76.402344 118.898438 C 76.15625 119 75.902344 119.078125 75.640625 119.128906 C 75.378906 119.183594 75.117188 119.207031 74.851562 119.207031 Z M 74.851562 119.207031 " fill-opacity="1" fill-rule="nonzero"/></g><g clip-path="url(#172ddc940f)"><path fill="#3c6a98" d="M 74.851562 75.871094 L 52.726562 75.871094 C 52.460938 75.871094 52.195312 75.84375 51.933594 75.792969 C 51.671875 75.738281 51.417969 75.660156 51.171875 75.558594 C 50.925781 75.457031 50.691406 75.332031 50.46875 75.183594 C 50.246094 75.035156 50.042969 74.867188 49.855469 74.679688 C 49.664062 74.488281 49.496094 74.285156 49.347656 74.0625 C 49.199219 73.839844 49.074219 73.605469 48.972656 73.359375 C 48.871094 73.113281 48.796875 72.859375 48.742188 72.597656 C 48.691406 72.332031 48.664062 72.070312 48.664062 71.800781 C 48.664062 71.535156 48.691406 71.269531 48.742188 71.007812 C 48.796875 70.746094 48.871094 70.492188 48.972656 70.246094 C 49.074219 70 49.199219 69.765625 49.347656 69.542969 C 49.496094 69.320312 49.664062 69.117188 49.855469 68.925781 C 50.042969 68.738281 50.246094 68.570312 50.46875 68.421875 C 50.691406 68.273438 50.925781 68.148438 51.171875 68.042969 C 51.417969 67.941406 51.671875 67.867188 51.933594 67.8125 C 52.195312 67.761719 52.460938 67.734375 52.726562 67.734375 L 74.851562 67.734375 C 75.117188 67.734375 75.378906 67.761719 75.640625 67.8125 C 75.902344 67.867188 76.15625 67.941406 76.402344 68.042969 C 76.648438 68.148438 76.882812 68.273438 77.105469 68.421875 C 77.328125 68.570312 77.53125 68.738281 77.722656 68.925781 C 77.910156 69.117188 78.078125 69.320312 78.226562 69.542969 C 78.375 69.765625 78.5 70 78.601562 70.246094 C 78.703125 70.492188 78.78125 70.746094 78.832031 71.007812 C 78.882812 71.269531 78.910156 71.535156 78.910156 71.800781 C 78.910156 72.070312 78.882812 72.332031 78.832031 72.597656 C 78.78125 72.859375 78.703125 73.113281 78.601562 73.359375 C 78.5 73.605469 78.375 73.839844 78.226562 74.0625 C 78.078125 74.285156 77.910156 74.488281 77.722656 74.679688 C 77.53125 74.867188 77.328125 75.035156 77.105469 75.183594 C 76.882812 75.332031 76.648438 75.457031 76.402344 75.558594 C 76.15625 75.660156 75.902344 75.738281 75.640625 75.792969 C 75.378906 75.84375 75.117188 75.871094 74.851562 75.871094 Z M 74.851562 75.871094 " fill-opacity="1" fill-rule="nonzero"/></g><g clip-path="url(#b3796389d4)"><path fill="#3c6a98" d="M 322.109375 316.640625 L 52.726562 316.640625 C 52.460938 316.640625 52.195312 316.617188 51.933594 316.5625 C 51.671875 316.511719 51.417969 316.433594 51.171875 316.332031 C 50.925781 316.230469 50.691406 316.105469 50.46875 315.957031 C 50.246094 315.808594 50.042969 315.640625 49.855469 315.449219 C 49.664062 315.261719 49.496094 315.054688 49.347656 314.832031 C 49.199219 314.613281 49.074219 314.378906 48.972656 314.128906 C 48.871094 313.882812 48.796875 313.628906 48.742188 313.367188 C 48.691406 313.105469 48.664062 312.839844 48.664062 312.574219 L 48.664062 55.339844 C 48.664062 55.070312 48.691406 54.808594 48.742188 54.546875 C 48.792969 54.28125 48.871094 54.027344 48.972656 53.78125 C 49.074219 53.535156 49.199219 53.300781 49.347656 53.078125 C 49.496094 52.855469 49.664062 52.652344 49.855469 52.460938 C 50.042969 52.273438 50.246094 52.105469 50.46875 51.957031 C 50.691406 51.808594 50.925781 51.683594 51.171875 51.578125 C 51.417969 51.476562 51.671875 51.398438 51.933594 51.347656 C 52.195312 51.296875 52.460938 51.269531 52.726562 51.269531 C 52.992188 51.269531 53.257812 51.296875 53.519531 51.347656 C 53.78125 51.398438 54.035156 51.476562 54.28125 51.578125 C 54.527344 51.683594 54.761719 51.808594 54.984375 51.957031 C 55.203125 52.105469 55.410156 52.273438 55.597656 52.460938 C 55.785156 52.652344 55.953125 52.855469 56.101562 53.078125 C 56.25 53.300781 56.375 53.535156 56.476562 53.78125 C 56.582031 54.027344 56.65625 54.28125 56.710938 54.546875 C 56.761719 54.808594 56.785156 55.070312 56.785156 55.339844 L 56.785156 308.507812 L 322.109375 308.507812 C 322.378906 308.507812 322.640625 308.535156 322.902344 308.585938 C 323.164062 308.636719 323.417969 308.714844 323.664062 308.816406 C 323.910156 308.917969 324.144531 309.042969 324.367188 309.191406 C 324.589844 309.339844 324.792969 309.507812 324.984375 309.699219 C 325.171875 309.886719 325.339844 310.09375 325.488281 310.316406 C 325.636719 310.535156 325.761719 310.769531 325.863281 311.019531 C 325.964844 311.265625 326.042969 311.519531 326.09375 311.78125 C 326.144531 312.042969 326.171875 312.308594 326.171875 312.574219 C 326.171875 312.839844 326.144531 313.105469 326.09375 313.367188 C 326.042969 313.628906 325.964844 313.882812 325.863281 314.128906 C 325.761719 314.378906 325.636719 314.613281 325.488281 314.832031 C 325.339844 315.054688 325.171875 315.261719 324.984375 315.449219 C 324.792969 315.640625 324.589844 315.808594 324.367188 315.957031 C 324.144531 316.105469 323.910156 316.230469 323.664062 316.332031 C 323.417969 316.433594 323.164062 316.511719 322.902344 316.5625 C 322.640625 316.617188 322.378906 316.640625 322.109375 316.640625 Z M 322.109375 316.640625 " fill-opacity="1" fill-rule="nonzero"/></g><g fill="#ff6d55" fill-opacity="1"><g transform="translate(187.499992, 244.46972)"><g><path d="M 2.09375 0.15625 C 1.632812 0.15625 1.289062 0.0195312 1.0625 -0.25 C 0.832031 -0.519531 0.71875 -0.847656 0.71875 -1.234375 C 0.71875 -1.628906 0.835938 -1.957031 1.078125 -2.21875 C 1.316406 -2.488281 1.65625 -2.625 2.09375 -2.625 C 2.53125 -2.625 2.875 -2.507812 3.125 -2.28125 C 3.382812 -2.0625 3.515625 -1.726562 3.515625 -1.28125 C 3.515625 -0.832031 3.394531 -0.476562 3.15625 -0.21875 C 2.914062 0.03125 2.5625 0.15625 2.09375 0.15625 Z M 2.09375 0.15625 "/></g></g></g></svg>