<svg xmlns="http://www.w3.org/2000/svg" xmlns:xlink="http://www.w3.org/1999/xlink" width="500" zoomAndPan="magnify" viewBox="0 0 375 374.999991" height="500" preserveAspectRatio="xMidYMid meet" version="1.0"><defs><g/><clipPath id="74a4aa532b"><path d="M 163 292 L 307.5 292 L 307.5 328 L 163 328 Z M 163 292 " clip-rule="nonzero"/></clipPath><clipPath id="af65253dea"><path d="M 163 211 L 307.5 211 L 307.5 247 L 163 247 Z M 163 211 " clip-rule="nonzero"/></clipPath><clipPath id="c3a32b84e3"><path d="M 163 130 L 307.5 130 L 307.5 167 L 163 167 Z M 163 130 " clip-rule="nonzero"/></clipPath><clipPath id="06869608bc"><path d="M 163 50 L 307.5 50 L 307.5 86 L 163 86 Z M 163 50 " clip-rule="nonzero"/></clipPath><clipPath id="507a450dc5"><path d="M 138 284 L 190 284 L 190 335.566406 L 138 335.566406 Z M 138 284 " clip-rule="nonzero"/></clipPath></defs><path fill="#fdc105" d="M 65.917969 123.011719 L 51 137.921875 C 37.992188 124.90625 20.011719 116.851562 0.152344 116.851562 L 0.152344 92.210938 C 26.101562 93.574219 49.339844 105.160156 65.917969 123.011719 Z M 65.917969 123.011719 " fill-opacity="1" fill-rule="nonzero"/><path fill="#43dcbf" d="M 72.019531 188.75 L 72.019531 188.695312 C 72.019531 168.871094 63.988281 150.921875 51 137.921875 L 65.917969 123.011719 C 81.933594 140.261719 91.730469 163.363281 91.75 188.75 Z M 72.019531 188.75 " fill-opacity="1" fill-rule="nonzero"/><path fill="#36bbeb" d="M 91.75 188.75 L 91.75 188.808594 C 91.75 214.191406 81.96875 237.289062 65.972656 254.542969 L 50.941406 239.519531 C 63.953125 226.53125 72.003906 208.585938 72.019531 188.75 Z M 91.75 188.75 " fill-opacity="1" fill-rule="nonzero"/><path fill="#9a55e5" d="M 65.972656 254.542969 C 49.390625 272.429688 26.128906 284.039062 0.152344 285.40625 L 0.152344 260.535156 C 19.984375 260.535156 37.9375 252.503906 50.941406 239.519531 Z M 65.972656 254.542969 " fill-opacity="1" fill-rule="nonzero"/><path stroke-linecap="butt" transform="matrix(0.113712, 0, 0, 0.113671, 0.21076, 18.300456)" fill="none" stroke-linejoin="miter" d="M 631.498491 1499.014692 L 631.498491 1499.495794 C 631.361082 1673.964126 560.492444 1831.868791 446.133892 1946.130599 C 331.775339 2060.426772 173.892518 2131.01136 -0.513722 2131.01136 L -0.513722 866.98366 C 174.132984 866.98366 332.25627 937.843163 446.649175 1052.345523 C 560.870319 1166.710425 631.498491 1324.615089 631.498491 1499.014692 Z M 631.498491 1499.014692 " stroke="#000000" stroke-width="1" stroke-opacity="1" stroke-miterlimit="10"/><path stroke-linecap="butt" transform="matrix(0.113712, 0, 0, 0.113671, 0.21076, 18.300456)" fill-opacity="1" fill="#282a3a" fill-rule="nonzero" stroke-linejoin="miter" d="M 631.498491 1499.014692 L 631.498491 1499.495794 C 631.361082 1673.964126 560.492444 1831.868791 446.133892 1946.130599 C 331.775339 2060.426772 173.892518 2131.01136 -0.513722 2131.01136 L -0.513722 866.98366 C 174.132984 866.98366 332.25627 937.843163 446.649175 1052.345523 C 560.870319 1166.710425 631.498491 1324.615089 631.498491 1499.014692 Z M 631.498491 1499.014692 " stroke="#ffffff" stroke-width="1" stroke-opacity="1" stroke-miterlimit="10"/><path stroke-linecap="butt" transform="matrix(0.113712, 0, 0, 0.113671, 0.21076, 18.300456)" fill-opacity="1" fill="#282a3a" fill-rule="nonzero" stroke-linejoin="miter" d="M 619.372156 425.984625 L 614.837662 425.984625 L 401.30424 713.649467 C 399.346163 712.652898 397.319382 711.793787 395.258248 711.037769 C 393.197115 710.316115 391.067277 709.697555 388.937439 709.216453 C 386.807601 708.73535 384.643411 708.391706 382.444869 708.185519 C 380.246326 707.979332 378.082136 707.910603 375.883594 707.979332 C 373.685052 708.048061 371.486509 708.219883 369.322319 708.563528 C 367.158129 708.907173 365.028291 709.35391 362.898453 709.972471 C 360.802968 710.556666 358.741834 711.27832 356.715053 712.137431 C 354.688272 712.996542 352.730195 713.958747 350.806471 715.05841 C 348.917098 716.158072 347.09643 717.360828 345.344467 718.701042 C 343.592504 720.041256 341.943597 721.450198 340.363395 722.996599 C 338.783192 724.508634 337.306047 726.123764 335.931958 727.841986 C 334.557869 729.560209 333.286836 731.347161 332.153213 733.202841 C 330.985237 735.092886 329.954671 737.017296 329.061513 739.010434 C 328.134003 741.003572 327.343902 743.065439 326.69121 745.161671 C 326.038517 747.257903 325.523234 749.388499 325.111007 751.519095 C 324.733133 753.684056 324.458315 755.883381 324.355258 758.048341 C 324.217849 760.247666 324.217849 762.446991 324.389611 764.646316 C 324.527019 766.811277 324.801837 768.976238 325.214064 771.141198 C 325.626291 773.306159 326.175926 775.436755 326.862971 777.498622 C 327.550015 779.594854 328.340116 781.622357 329.267626 783.615495 C 330.229489 785.608633 331.260055 787.533043 332.428031 789.388723 C 333.596007 791.244404 334.901391 793.031355 336.27548 794.715213 C 337.683921 796.433436 339.161067 798.014201 340.741269 799.526237 C 342.321471 801.072637 344.00473 802.48158 345.791046 803.787429 C 347.543009 805.093278 349.363677 806.26167 351.287402 807.361332 C 353.211126 808.42663 355.169203 809.388835 357.195984 810.213582 C 359.222765 811.038329 361.318251 811.759982 363.413737 812.344178 C 365.543575 812.894009 367.707765 813.340747 369.871955 813.650027 C 372.036145 813.959307 374.234687 814.13113 376.398877 814.199859 C 378.59742 814.234223 380.795962 814.13113 382.994504 813.890579 C 385.158694 813.650027 387.322884 813.306383 389.452722 812.790916 C 391.58256 812.309814 393.712398 811.656889 395.773531 810.900871 C 397.800313 810.144853 399.827094 809.285742 401.785171 808.254808 C 403.708895 807.258239 405.598267 806.124212 407.418935 804.887092 C 409.239603 803.649971 410.957214 802.309758 412.606121 800.832086 C 414.220676 799.388779 415.766526 797.842379 417.243671 796.192885 C 418.686465 794.543391 420.026201 792.825168 421.262882 791.003852 C 422.499562 789.182536 423.633185 787.292491 424.629399 785.368082 C 425.625614 783.409308 426.518772 781.381805 427.274521 779.319938 C 428.03027 777.258071 428.64861 775.161839 429.129541 773.031243 C 429.644824 770.900647 429.988346 768.735686 430.228812 766.536361 C 430.434925 764.371401 430.537982 762.172076 430.50363 759.972751 C 430.434925 757.773426 430.263164 755.608465 429.953994 753.443504 C 429.644824 751.278544 429.198245 749.113583 428.614257 747.017352 C 428.03027 744.886756 427.308873 742.824888 426.48442 740.797386 C 425.625614 738.769883 424.663752 736.776744 423.598833 734.8867 C 422.499562 732.96229 421.297234 731.140974 419.991849 729.354022 C 418.686465 727.601435 417.278024 725.951942 415.766526 724.336812 L 623.906649 443.991599 L 1439.497146 443.991599 L 1439.497146 425.984625 Z M 619.372156 425.984625 " stroke="#ffffff" stroke-width="1" stroke-opacity="1" stroke-miterlimit="10"/><path stroke-linecap="butt" transform="matrix(0.113712, 0, 0, 0.113671, 0.21076, 18.300456)" fill-opacity="1" fill="#282a3a" fill-rule="nonzero" stroke-linejoin="miter" d="M 1352.002032 1135.57623 L 779.659632 1135.57623 C 779.247405 1133.411269 778.732122 1131.315037 778.07943 1129.218806 C 777.426737 1127.122574 776.636636 1125.095071 775.743478 1123.101933 C 774.850321 1121.108795 773.819754 1119.150021 772.686131 1117.29434 C 771.518155 1115.43866 770.281475 1113.651708 768.907386 1111.933486 C 767.533297 1110.215263 766.056151 1108.600133 764.510301 1107.088098 C 762.930099 1105.541697 761.281192 1104.132755 759.529229 1102.792541 C 757.777265 1101.486692 755.956598 1100.249571 754.067225 1099.149909 C 752.177853 1098.050246 750.219776 1097.088042 748.192995 1096.22893 C 746.200566 1095.369819 744.139433 1094.648165 742.043947 1094.029605 C 739.914109 1093.445409 737.784271 1092.964307 735.620081 1092.655027 C 733.455891 1092.311382 731.291701 1092.105196 729.093159 1092.036467 C 726.894616 1091.967738 724.730426 1092.036467 722.531884 1092.242654 C 720.367694 1092.44884 718.203504 1092.792485 716.073666 1093.273587 C 713.909476 1093.720325 711.81399 1094.338885 709.752857 1095.060539 C 707.691723 1095.816557 705.699294 1096.675668 703.741217 1097.637873 C 701.783141 1098.634442 699.893768 1099.734104 698.073101 1100.93686 C 696.252433 1102.173981 694.500469 1103.47983 692.851563 1104.923137 C 691.202656 1106.33208 689.622453 1107.87848 688.145308 1109.493609 C 686.702514 1111.108739 685.328426 1112.826961 684.057393 1114.613913 C 682.820713 1116.435229 681.68709 1118.290909 680.656523 1120.215319 C 679.625956 1122.139728 678.732799 1124.132867 677.942697 1126.194734 C 677.186948 1128.256601 676.534256 1130.318468 676.018973 1132.449064 C 675.50369 1134.57966 675.091463 1136.744621 674.850997 1138.909582 C 674.610532 1141.074542 674.473123 1143.273867 674.507475 1145.473192 C 674.507475 1147.638153 674.679236 1149.837478 674.954054 1152.002439 C 675.263224 1154.167399 675.675451 1156.297995 676.225086 1158.428591 C 676.774722 1160.559187 677.461766 1162.621055 678.28622 1164.648557 C 679.076321 1166.710425 680.003831 1168.669199 681.06875 1170.593608 C 682.133669 1172.518017 683.301644 1174.339333 684.572677 1176.126285 C 685.878061 1177.913237 687.25215 1179.597095 688.763648 1181.17786 C 690.240794 1182.792989 691.820996 1184.270661 693.504255 1185.679603 C 695.187514 1187.088546 696.973829 1188.394395 698.794497 1189.562786 C 700.649517 1190.765542 702.53889 1191.83084 704.531319 1192.793045 C 706.489395 1193.720885 708.516177 1194.545632 710.611662 1195.232921 C 712.672796 1195.954575 714.768281 1196.504406 716.932471 1196.951144 C 719.062309 1197.397882 721.226499 1197.672797 723.425042 1197.84462 C 725.589232 1198.016442 727.787774 1198.050806 729.986316 1197.947713 C 732.150506 1197.84462 734.349049 1197.604069 736.478887 1197.260424 C 738.643077 1196.882415 740.772915 1196.366948 742.8684 1195.748388 C 744.963886 1195.095463 747.025019 1194.339445 749.017448 1193.44597 C 751.009877 1192.552494 752.967954 1191.555925 754.822974 1190.421898 C 756.712346 1189.287871 758.498662 1188.05075 760.216273 1186.710537 C 761.968237 1185.335959 763.582791 1183.892652 765.128641 1182.346251 C 766.674491 1180.765486 768.117285 1179.150357 769.457021 1177.39777 C 770.796758 1175.679547 771.999086 1173.858231 773.132709 1171.968186 C 774.231981 1170.078141 775.228195 1168.153732 776.121353 1166.126229 C 776.980158 1164.133091 777.735907 1162.071223 778.354247 1159.974992 C 778.972587 1157.87876 779.453519 1155.748164 779.797041 1153.583203 L 1352.002032 1153.583203 Z M 1352.002032 1135.57623 " stroke="#ffffff" stroke-width="1" stroke-opacity="1" stroke-miterlimit="10"/><path stroke-linecap="butt" transform="matrix(0.113712, 0, 0, 0.113671, 0.21076, 18.300456)" fill-opacity="1" fill="#282a3a" fill-rule="nonzero" stroke-linejoin="miter" d="M 1352.002032 1845.580208 L 779.659632 1845.580208 C 779.247405 1843.415247 778.732122 1841.319015 778.07943 1839.222784 C 777.426737 1837.126552 776.636636 1835.064685 775.743478 1833.071546 C 774.850321 1831.078408 773.819754 1829.153999 772.686131 1827.298318 C 771.518155 1825.442638 770.281475 1823.655686 768.907386 1821.937463 C 767.533297 1820.219241 766.056151 1818.604111 764.510301 1817.057711 C 762.930099 1815.545675 761.281192 1814.102368 759.529229 1812.796519 C 757.777265 1811.456305 755.956598 1810.253549 754.067225 1809.153887 C 752.177853 1808.054224 750.219776 1807.092019 748.192995 1806.232908 C 746.200566 1805.373797 744.139433 1804.652143 742.009595 1804.033583 C 739.914109 1803.449387 737.784271 1802.968285 735.620081 1802.659005 C 733.455891 1802.31536 731.291701 1802.109174 729.093159 1802.040445 C 726.894616 1801.971716 724.730426 1802.040445 722.531884 1802.246631 C 720.367694 1802.452818 718.203504 1802.796463 716.073666 1803.277565 C 713.909476 1803.724303 711.81399 1804.342863 709.752857 1805.064517 C 707.691723 1805.820535 705.699294 1806.645282 703.741217 1807.641851 C 701.783141 1808.63842 699.893768 1809.738082 698.073101 1810.940838 C 696.252433 1812.143594 694.500469 1813.483808 692.851563 1814.927115 C 691.202656 1816.336057 689.622453 1817.882458 688.145308 1819.497587 C 686.702514 1821.112717 685.328426 1822.830939 684.057393 1824.617891 C 682.820713 1826.404842 681.68709 1828.294887 680.656523 1830.219297 C 679.625956 1832.143706 678.732799 1834.136844 677.942697 1836.198712 C 677.186948 1838.226214 676.534256 1840.322446 676.018973 1842.453042 C 675.50369 1844.583638 675.091463 1846.748599 674.850997 1848.91356 C 674.610532 1851.07852 674.473123 1853.277845 674.507475 1855.442806 C 674.507475 1857.642131 674.679236 1859.841456 674.954054 1862.006416 C 675.263224 1864.171377 675.675451 1866.301973 676.225086 1868.432569 C 676.774722 1870.563165 677.461766 1872.625033 678.28622 1874.652535 C 679.076321 1876.680038 680.003831 1878.673176 681.06875 1880.597586 C 682.133669 1882.521995 683.301644 1884.343311 684.572677 1886.130263 C 685.878061 1887.88285 687.25215 1889.566708 688.763648 1891.181838 C 690.240794 1892.796967 691.820996 1894.274638 693.504255 1895.683581 C 695.187514 1897.092524 696.973829 1898.398373 698.794497 1899.566764 C 700.649517 1900.76952 702.53889 1901.834818 704.531319 1902.762659 C 706.489395 1903.724863 708.516177 1904.54961 710.611662 1905.236899 C 712.672796 1905.958553 714.768281 1906.508384 716.932471 1906.955122 C 719.062309 1907.40186 721.226499 1907.676775 723.425042 1907.848598 C 725.589232 1908.02042 727.787774 1908.054784 729.986316 1907.951691 C 732.150506 1907.848598 734.349049 1907.608046 736.478887 1907.230037 C 738.643077 1906.886393 740.772915 1906.370926 742.8684 1905.752366 C 744.963886 1905.099441 747.025019 1904.343423 749.017448 1903.449948 C 751.009877 1902.556472 752.967954 1901.559903 754.822974 1900.425876 C 756.712346 1899.291849 758.498662 1898.054728 760.216273 1896.714515 C 761.968237 1895.339937 763.582791 1893.896629 765.128641 1892.350229 C 766.674491 1890.769464 768.117285 1889.154335 769.457021 1887.401748 C 770.796758 1885.683525 771.999086 1883.862209 773.132709 1881.972164 C 774.231981 1880.082119 775.228195 1878.15771 776.121353 1876.130207 C 776.980158 1874.137069 777.735907 1872.075201 778.354247 1869.97897 C 778.972587 1867.882738 779.453519 1865.752142 779.797041 1863.587181 L 1352.002032 1863.587181 Z M 1352.002032 1845.580208 " stroke="#ffffff" stroke-width="1" stroke-opacity="1" stroke-miterlimit="10"/><path stroke-linecap="butt" transform="matrix(0.113712, 0, 0, 0.113671, 0.21076, 18.300456)" fill-opacity="1" fill="#282a3a" fill-rule="nonzero" stroke-linejoin="miter" d="M 623.906649 2558.505164 L 413.842801 2275.548252 C 415.423003 2274.070581 416.900149 2272.455451 418.30859 2270.771593 C 419.682679 2269.087735 420.953712 2267.300783 422.121687 2265.479467 C 423.289663 2263.623787 424.354582 2261.699377 425.282092 2259.740604 C 426.209602 2257.747465 427.034055 2255.719962 427.7211 2253.658095 C 428.373792 2251.561864 428.923427 2249.465632 429.370006 2247.300671 C 429.782233 2245.170075 430.057051 2243.005115 430.19446 2240.80579 C 430.366221 2238.640829 430.366221 2236.441504 430.263164 2234.276543 C 430.125755 2232.077218 429.88529 2229.912258 429.507415 2227.781662 C 429.095189 2225.616701 428.579905 2223.520469 427.927213 2221.424238 C 427.274521 2219.328006 426.518772 2217.300503 425.591262 2215.307365 C 424.698104 2213.314227 423.667537 2211.389817 422.533914 2209.534137 C 421.40029 2207.644092 420.129258 2205.85714 418.789521 2204.173282 C 417.415432 2202.455059 415.938287 2200.83993 414.392437 2199.293529 C 412.812234 2197.781494 411.163328 2196.338186 409.411364 2195.032337 C 407.693753 2193.726488 405.873085 2192.489368 403.983713 2191.389705 C 402.094341 2190.290043 400.136264 2189.327838 398.109483 2188.468727 C 396.117054 2187.609615 394.05592 2186.887962 391.960435 2186.303766 C 389.864949 2185.685206 387.735111 2185.204103 385.570921 2184.894823 C 383.406731 2184.551179 381.242541 2184.344992 379.043999 2184.276263 C 376.845456 2184.207534 374.681266 2184.276263 372.517076 2184.48245 C 370.318534 2184.688637 368.154344 2185.032281 366.024506 2185.479019 C 363.894668 2185.960121 361.799182 2186.544317 359.738049 2187.300335 C 357.676915 2188.021989 355.684486 2188.8811 353.72641 2189.843305 C 351.768333 2190.839874 349.878961 2191.939536 348.058293 2193.142292 C 346.237625 2194.345048 344.520014 2195.685262 342.836755 2197.094204 C 341.187848 2198.537512 339.641998 2200.049547 338.164852 2201.664677 C 336.687707 2203.279806 335.34797 2204.998029 334.076938 2206.78498 C 332.840258 2208.571932 331.672282 2210.427612 330.676067 2212.386386 C 329.645501 2214.310796 328.752343 2216.303934 327.962242 2218.331437 C 327.172141 2220.393304 326.519448 2222.455171 326.004165 2224.585767 C 325.488882 2226.716364 325.111007 2228.84696 324.836189 2231.01192 C 324.595724 2233.211245 324.492667 2235.376206 324.492667 2237.575531 C 324.527019 2239.740492 324.664428 2241.939817 324.939246 2244.104777 C 325.248416 2246.269738 325.660643 2248.400334 326.210278 2250.53093 C 326.759914 2252.627162 327.446958 2254.689029 328.23706 2256.750896 C 329.061513 2258.778399 329.989023 2260.737173 331.01959 2262.661582 C 332.084509 2264.585992 333.252484 2266.407308 334.523517 2268.194259 C 335.828901 2269.946846 337.20299 2271.630705 338.680136 2273.245834 C 340.191633 2274.826599 341.771836 2276.338635 343.455095 2277.747577 C 345.104001 2279.15652 346.890317 2280.428005 348.710985 2281.630761 C 350.531653 2282.799152 352.455377 2283.898815 354.413454 2284.826655 C 356.371531 2285.788859 358.398312 2286.613606 360.493798 2287.300895 C 362.554931 2288.022549 364.650417 2288.57238 366.780255 2289.019118 C 368.944445 2289.465856 371.108635 2289.775136 373.272825 2289.912594 C 375.471367 2290.084416 377.635557 2290.153145 379.8341 2290.050052 C 381.99829 2289.946958 384.16248 2289.706407 386.32667 2289.328398 C 388.49086 2288.950389 390.620698 2288.469287 392.716184 2287.850727 C 394.811669 2287.197802 396.83845 2286.441784 398.830879 2285.548308 L 614.837662 2576.546502 L 1439.497146 2576.546502 L 1439.497146 2558.573893 Z M 623.906649 2558.505164 " stroke="#ffffff" stroke-width="1" stroke-opacity="1" stroke-miterlimit="10"/><g clip-path="url(#74a4aa532b)"><path fill="#9a55e5" d="M 164.453125 292.488281 L 289.878906 292.488281 C 290.453125 292.488281 291.023438 292.515625 291.59375 292.574219 C 292.167969 292.628906 292.734375 292.710938 293.296875 292.824219 C 293.859375 292.9375 294.414062 293.074219 294.964844 293.242188 C 295.511719 293.410156 296.054688 293.601562 296.582031 293.820312 C 297.113281 294.039062 297.632812 294.285156 298.136719 294.554688 C 298.644531 294.828125 299.136719 295.121094 299.613281 295.441406 C 300.089844 295.757812 300.550781 296.101562 300.996094 296.464844 C 301.4375 296.828125 301.863281 297.210938 302.269531 297.617188 C 302.675781 298.023438 303.058594 298.449219 303.421875 298.890625 C 303.789062 299.335938 304.128906 299.796875 304.449219 300.273438 C 304.765625 300.75 305.0625 301.242188 305.332031 301.746094 C 305.601562 302.253906 305.847656 302.769531 306.066406 303.300781 C 306.285156 303.832031 306.480469 304.371094 306.644531 304.917969 C 306.8125 305.46875 306.953125 306.023438 307.0625 306.585938 C 307.175781 307.148438 307.261719 307.71875 307.316406 308.289062 C 307.371094 308.859375 307.402344 309.429688 307.402344 310.003906 C 307.402344 310.578125 307.371094 311.152344 307.316406 311.722656 C 307.261719 312.292969 307.175781 312.859375 307.0625 313.421875 C 306.953125 313.984375 306.8125 314.539062 306.644531 315.089844 C 306.480469 315.636719 306.285156 316.179688 306.066406 316.707031 C 305.847656 317.238281 305.601562 317.757812 305.332031 318.261719 C 305.0625 318.769531 304.765625 319.257812 304.449219 319.738281 C 304.128906 320.214844 303.789062 320.671875 303.421875 321.117188 C 303.058594 321.5625 302.675781 321.984375 302.269531 322.390625 C 301.863281 322.796875 301.4375 323.179688 300.992188 323.546875 C 300.550781 323.910156 300.089844 324.25 299.613281 324.570312 C 299.136719 324.886719 298.644531 325.183594 298.136719 325.453125 C 297.632812 325.722656 297.113281 325.96875 296.582031 326.1875 C 296.054688 326.40625 295.511719 326.601562 294.964844 326.765625 C 294.414062 326.933594 293.859375 327.074219 293.296875 327.183594 C 292.734375 327.296875 292.167969 327.382812 291.59375 327.4375 C 291.023438 327.492188 290.453125 327.523438 289.878906 327.523438 L 164.453125 327.523438 C 164.300781 327.523438 164.167969 327.46875 164.0625 327.359375 C 163.953125 327.25 163.898438 327.121094 163.898438 326.964844 L 163.898438 293.042969 C 163.898438 292.890625 163.953125 292.757812 164.0625 292.652344 C 164.167969 292.542969 164.300781 292.488281 164.453125 292.488281 Z M 164.453125 292.488281 " fill-opacity="1" fill-rule="nonzero"/></g><g clip-path="url(#af65253dea)"><path fill="#36bbeb" d="M 164.453125 211.617188 L 289.878906 211.617188 C 290.453125 211.617188 291.023438 211.644531 291.59375 211.699219 C 292.167969 211.757812 292.734375 211.839844 293.296875 211.953125 C 293.859375 212.0625 294.414062 212.203125 294.964844 212.371094 C 295.511719 212.535156 296.054688 212.730469 296.582031 212.949219 C 297.113281 213.167969 297.632812 213.414062 298.136719 213.683594 C 298.644531 213.953125 299.136719 214.25 299.613281 214.566406 C 300.089844 214.886719 300.550781 215.226562 300.996094 215.589844 C 301.4375 215.957031 301.863281 216.339844 302.269531 216.746094 C 302.675781 217.152344 303.058594 217.578125 303.421875 218.019531 C 303.789062 218.464844 304.128906 218.921875 304.449219 219.398438 C 304.765625 219.878906 305.0625 220.367188 305.332031 220.875 C 305.601562 221.378906 305.847656 221.898438 306.066406 222.429688 C 306.285156 222.957031 306.480469 223.5 306.644531 224.046875 C 306.8125 224.597656 306.953125 225.152344 307.0625 225.714844 C 307.175781 226.277344 307.261719 226.84375 307.316406 227.414062 C 307.371094 227.984375 307.402344 228.558594 307.402344 229.132812 C 307.402344 229.707031 307.371094 230.277344 307.316406 230.847656 C 307.261719 231.421875 307.175781 231.988281 307.0625 232.550781 C 306.953125 233.113281 306.8125 233.667969 306.644531 234.21875 C 306.480469 234.765625 306.285156 235.304688 306.066406 235.835938 C 305.847656 236.367188 305.601562 236.882812 305.332031 237.390625 C 305.0625 237.894531 304.765625 238.386719 304.449219 238.863281 C 304.128906 239.339844 303.789062 239.800781 303.421875 240.246094 C 303.058594 240.6875 302.675781 241.113281 302.269531 241.519531 C 301.863281 241.925781 301.4375 242.308594 300.992188 242.671875 C 300.550781 243.035156 300.089844 243.378906 299.613281 243.695312 C 299.136719 244.015625 298.644531 244.308594 298.136719 244.582031 C 297.632812 244.851562 297.113281 245.097656 296.582031 245.316406 C 296.054688 245.535156 295.511719 245.726562 294.964844 245.894531 C 294.414062 246.0625 293.859375 246.199219 293.296875 246.3125 C 292.734375 246.425781 292.167969 246.507812 291.59375 246.566406 C 291.023438 246.621094 290.453125 246.648438 289.878906 246.648438 L 164.453125 246.648438 C 164.300781 246.648438 164.167969 246.59375 164.0625 246.488281 C 163.953125 246.378906 163.898438 246.246094 163.898438 246.09375 L 163.898438 212.171875 C 163.898438 212.015625 163.953125 211.886719 164.0625 211.777344 C 164.167969 211.667969 164.300781 211.617188 164.453125 211.617188 Z M 164.453125 211.617188 " fill-opacity="1" fill-rule="nonzero"/></g><g clip-path="url(#c3a32b84e3)"><path fill="#43dcbf" d="M 164.453125 130.96875 L 289.878906 130.96875 C 290.453125 130.96875 291.023438 130.996094 291.59375 131.054688 C 292.167969 131.109375 292.734375 131.195312 293.296875 131.304688 C 293.859375 131.417969 294.414062 131.558594 294.964844 131.722656 C 295.511719 131.890625 296.054688 132.082031 296.582031 132.300781 C 297.113281 132.523438 297.632812 132.765625 298.136719 133.039062 C 298.644531 133.308594 299.136719 133.601562 299.613281 133.921875 C 300.089844 134.238281 300.550781 134.582031 300.996094 134.945312 C 301.4375 135.308594 301.863281 135.695312 302.269531 136.101562 C 302.675781 136.503906 303.058594 136.929688 303.421875 137.375 C 303.789062 137.816406 304.128906 138.277344 304.449219 138.753906 C 304.765625 139.230469 305.0625 139.722656 305.332031 140.230469 C 305.601562 140.734375 305.847656 141.253906 306.066406 141.78125 C 306.285156 142.3125 306.480469 142.851562 306.644531 143.402344 C 306.8125 143.949219 306.953125 144.503906 307.0625 145.070312 C 307.175781 145.632812 307.261719 146.199219 307.316406 146.769531 C 307.371094 147.339844 307.402344 147.914062 307.402344 148.484375 C 307.402344 149.058594 307.371094 149.632812 307.316406 150.203125 C 307.261719 150.773438 307.175781 151.339844 307.0625 151.902344 C 306.953125 152.464844 306.8125 153.023438 306.644531 153.570312 C 306.480469 154.121094 306.285156 154.660156 306.066406 155.1875 C 305.847656 155.71875 305.601562 156.238281 305.332031 156.742188 C 305.0625 157.25 304.765625 157.742188 304.449219 158.21875 C 304.128906 158.695312 303.789062 159.15625 303.421875 159.597656 C 303.058594 160.042969 302.675781 160.464844 302.269531 160.871094 C 301.863281 161.277344 301.4375 161.664062 300.996094 162.027344 C 300.550781 162.390625 300.089844 162.730469 299.613281 163.050781 C 299.136719 163.371094 298.644531 163.664062 298.136719 163.933594 C 297.632812 164.203125 297.113281 164.449219 296.582031 164.667969 C 296.054688 164.890625 295.511719 165.082031 294.964844 165.25 C 294.414062 165.414062 293.859375 165.554688 293.296875 165.664062 C 292.734375 165.777344 292.167969 165.863281 291.59375 165.917969 C 291.023438 165.972656 290.453125 166.003906 289.878906 166.003906 L 164.453125 166.003906 C 164.300781 166.003906 164.167969 165.949219 164.0625 165.839844 C 163.953125 165.730469 163.898438 165.601562 163.898438 165.449219 L 163.898438 131.523438 C 163.898438 131.371094 163.953125 131.238281 164.0625 131.132812 C 164.167969 131.023438 164.300781 130.96875 164.453125 130.96875 Z M 164.453125 130.96875 " fill-opacity="1" fill-rule="nonzero"/></g><g clip-path="url(#06869608bc)"><path fill="#fdc105" d="M 164.453125 50.148438 L 289.878906 50.148438 C 290.453125 50.148438 291.023438 50.175781 291.59375 50.234375 C 292.167969 50.289062 292.734375 50.375 293.296875 50.484375 C 293.859375 50.597656 294.414062 50.738281 294.964844 50.902344 C 295.511719 51.070312 296.054688 51.261719 296.582031 51.480469 C 297.113281 51.703125 297.632812 51.945312 298.136719 52.21875 C 298.644531 52.488281 299.136719 52.78125 299.613281 53.101562 C 300.089844 53.417969 300.550781 53.761719 300.996094 54.125 C 301.4375 54.488281 301.863281 54.875 302.269531 55.28125 C 302.675781 55.683594 303.058594 56.109375 303.421875 56.554688 C 303.789062 56.996094 304.128906 57.457031 304.449219 57.933594 C 304.765625 58.410156 305.0625 58.902344 305.332031 59.410156 C 305.601562 59.914062 305.847656 60.433594 306.066406 60.960938 C 306.285156 61.492188 306.480469 62.03125 306.644531 62.582031 C 306.8125 63.128906 306.953125 63.6875 307.0625 64.25 C 307.175781 64.8125 307.261719 65.378906 307.316406 65.949219 C 307.371094 66.519531 307.402344 67.09375 307.402344 67.664062 C 307.402344 68.238281 307.371094 68.8125 307.316406 69.382812 C 307.261719 69.953125 307.175781 70.519531 307.0625 71.082031 C 306.953125 71.644531 306.8125 72.203125 306.644531 72.75 C 306.480469 73.300781 306.285156 73.839844 306.066406 74.367188 C 305.847656 74.898438 305.601562 75.417969 305.332031 75.921875 C 305.0625 76.429688 304.765625 76.921875 304.449219 77.398438 C 304.128906 77.875 303.789062 78.335938 303.421875 78.777344 C 303.058594 79.222656 302.675781 79.644531 302.269531 80.050781 C 301.863281 80.457031 301.4375 80.84375 300.992188 81.207031 C 300.550781 81.570312 300.089844 81.910156 299.613281 82.230469 C 299.136719 82.550781 298.644531 82.84375 298.136719 83.113281 C 297.632812 83.382812 297.113281 83.628906 296.582031 83.847656 C 296.054688 84.070312 295.511719 84.261719 294.964844 84.429688 C 294.414062 84.59375 293.859375 84.734375 293.296875 84.847656 C 292.734375 84.957031 292.167969 85.042969 291.59375 85.097656 C 291.023438 85.152344 290.453125 85.183594 289.878906 85.183594 L 164.453125 85.183594 C 164.300781 85.183594 164.167969 85.128906 164.0625 85.019531 C 163.953125 84.910156 163.898438 84.78125 163.898438 84.628906 L 163.898438 50.703125 C 163.898438 50.550781 163.953125 50.417969 164.0625 50.3125 C 164.167969 50.203125 164.300781 50.148438 164.453125 50.148438 Z M 164.453125 50.148438 " fill-opacity="1" fill-rule="nonzero"/></g><path fill="#fdc105" d="M 163.898438 93.4375 C 162.917969 93.4375 161.9375 93.382812 160.960938 93.269531 C 159.984375 93.15625 159.019531 92.988281 158.0625 92.765625 C 157.105469 92.542969 156.164062 92.265625 155.242188 91.933594 C 154.316406 91.605469 153.414062 91.222656 152.53125 90.789062 C 151.652344 90.351562 150.796875 89.871094 149.972656 89.335938 C 149.148438 88.804688 148.355469 88.226562 147.597656 87.605469 C 146.835938 86.980469 146.117188 86.316406 145.433594 85.613281 C 144.75 84.90625 144.109375 84.164062 143.511719 83.386719 C 142.914062 82.605469 142.363281 81.796875 141.855469 80.953125 C 141.351562 80.113281 140.898438 79.242188 140.492188 78.347656 C 140.085938 77.453125 139.734375 76.539062 139.433594 75.605469 C 139.132812 74.671875 138.886719 73.722656 138.695312 72.757812 C 138.503906 71.796875 138.367188 70.824219 138.285156 69.847656 C 138.207031 68.867188 138.183594 67.886719 138.214844 66.90625 C 138.246094 65.925781 138.335938 64.949219 138.480469 63.976562 C 138.625 63.007812 138.824219 62.046875 139.078125 61.097656 C 139.332031 60.148438 139.636719 59.21875 140 58.304688 C 140.359375 57.390625 140.773438 56.503906 141.234375 55.636719 C 141.699219 54.769531 142.210938 53.933594 142.769531 53.125 C 143.328125 52.320312 143.929688 51.546875 144.578125 50.808594 C 145.226562 50.070312 145.914062 49.371094 146.640625 48.710938 C 147.371094 48.054688 148.132812 47.4375 148.929688 46.863281 C 149.730469 46.292969 150.558594 45.769531 151.417969 45.292969 C 152.273438 44.816406 153.160156 44.390625 154.066406 44.011719 C 154.972656 43.636719 155.898438 43.316406 156.84375 43.046875 C 157.789062 42.777344 158.746094 42.5625 159.714844 42.402344 C 160.683594 42.242188 161.660156 42.136719 162.640625 42.089844 C 163.621094 42.039062 164.601562 42.046875 165.582031 42.113281 C 166.5625 42.175781 167.535156 42.296875 168.5 42.472656 C 169.46875 42.648438 170.421875 42.878906 171.359375 43.164062 C 172.300781 43.449219 173.222656 43.785156 174.121094 44.175781 C 175.023438 44.566406 175.898438 45.007812 176.75 45.5 C 177.601562 45.992188 178.421875 46.527344 179.210938 47.113281 C 179.996094 47.699219 180.75 48.328125 181.46875 48.996094 C 182.183594 49.667969 182.859375 50.378906 183.496094 51.128906 C 184.132812 51.875 184.722656 52.660156 185.269531 53.476562 C 185.8125 54.292969 186.3125 55.136719 186.757812 56.011719 C 187.207031 56.882812 187.605469 57.78125 187.953125 58.699219 C 188.296875 59.617188 188.589844 60.554688 188.828125 61.507812 C 189.066406 62.457031 189.25 63.421875 189.378906 64.394531 C 189.507812 65.367188 189.578125 66.347656 189.59375 67.328125 C 189.609375 68.308594 189.570312 69.289062 189.476562 70.265625 C 189.378906 71.242188 189.226562 72.210938 189.019531 73.171875 C 188.8125 74.132812 188.550781 75.074219 188.234375 76.003906 C 187.917969 76.933594 187.550781 77.84375 187.128906 78.730469 C 186.710938 79.621094 186.242188 80.480469 185.722656 81.3125 C 185.203125 82.148438 184.640625 82.949219 184.027344 83.71875 C 183.417969 84.488281 182.765625 85.21875 182.070312 85.914062 C 180.878906 87.109375 179.585938 88.175781 178.183594 89.117188 C 176.78125 90.054688 175.296875 90.847656 173.738281 91.496094 C 172.179688 92.140625 170.570312 92.625 168.914062 92.953125 C 167.257812 93.28125 165.585938 93.441406 163.898438 93.4375 Z M 163.898438 93.4375 " fill-opacity="1" fill-rule="nonzero"/><path stroke-linecap="butt" transform="matrix(0.113712, 0, 0, 0.113671, 0.21076, 18.300456)" fill-opacity="1" fill="#282a3a" fill-rule="nonzero" stroke-linejoin="miter" d="M 1625.514437 434.988112 C 1625.514437 441.104985 1625.205267 447.153129 1624.62128 453.235637 C 1624.00294 459.283781 1623.109782 465.29756 1621.941806 471.276975 C 1620.739478 477.25639 1619.262333 483.167076 1617.476017 489.009033 C 1615.724054 494.816626 1613.66292 500.55549 1611.326969 506.19126 C 1609.02537 511.792666 1606.414601 517.290979 1603.529014 522.686198 C 1600.67778 528.047053 1597.551727 533.27045 1594.150857 538.322024 C 1590.784339 543.407963 1587.143004 548.287716 1583.295554 552.995646 C 1579.413753 557.703576 1575.325839 562.20532 1571.031811 566.535241 C 1566.70343 570.830798 1562.203289 574.920168 1557.497034 578.768986 C 1552.79078 582.65217 1547.912764 586.260437 1542.828635 589.662518 C 1537.778858 593.030235 1532.55732 596.1574 1527.164021 599.044014 C 1521.805074 601.896264 1516.308718 604.507962 1510.674953 606.844745 C 1505.041189 609.181528 1499.33872 611.209031 1493.498842 612.995982 C 1487.658964 614.748569 1481.750381 616.226241 1475.773094 617.428997 C 1469.795807 618.597388 1463.784168 619.490864 1457.738177 620.109424 C 1451.657833 620.69362 1445.577489 621.0029 1439.497146 621.0029 C 1433.416802 621.0029 1427.336459 620.69362 1421.256115 620.109424 C 1415.210124 619.490864 1409.198484 618.597388 1403.221198 617.428997 C 1397.243911 616.226241 1391.335328 614.748569 1385.49545 612.995982 C 1379.689924 611.209031 1373.953103 609.181528 1368.319338 606.844745 C 1362.685573 604.507962 1357.189218 601.896264 1351.830271 599.044014 C 1346.436972 596.1574 1341.215434 593.030235 1336.165657 589.662518 C 1331.11588 586.260437 1326.203512 582.65217 1321.497257 578.768986 C 1316.791003 574.920168 1312.290861 570.830798 1307.962481 566.535241 C 1303.668453 562.20532 1299.580538 557.703576 1295.733089 552.995646 C 1291.851288 548.287716 1288.244305 543.407963 1284.843434 538.322024 C 1281.476917 533.27045 1278.350864 528.047053 1275.465277 522.686198 C 1272.579691 517.290979 1270.003274 511.792666 1267.667323 506.19126 C 1265.331371 500.55549 1263.270238 494.816626 1261.518275 489.009033 C 1259.731959 483.167076 1258.254813 477.25639 1257.086838 471.276975 C 1255.88451 465.29756 1254.991352 459.283781 1254.407364 453.235637 C 1253.789024 447.153129 1253.514206 441.104985 1253.514206 434.988112 C 1253.514206 428.905604 1253.789024 422.823095 1254.407364 416.774952 C 1254.991352 410.692443 1255.88451 404.678664 1257.086838 398.699249 C 1258.254813 392.754198 1259.731959 386.843512 1261.518275 381.001555 C 1263.270238 375.193963 1265.331371 369.455099 1267.667323 363.819328 C 1270.003274 358.183558 1272.579691 352.685245 1275.465277 347.324391 C 1278.350864 341.963536 1281.476917 336.740139 1284.843434 331.6542 C 1288.244305 326.602625 1291.851288 321.722873 1295.733089 317.014943 C 1299.580538 312.307012 1303.668453 307.770904 1307.962481 303.475348 C 1312.290861 299.179791 1316.791003 295.090421 1321.497257 291.207238 C 1326.203512 287.358419 1331.11588 283.715787 1336.165657 280.34807 C 1341.215434 276.945989 1346.436972 273.818824 1351.830271 270.966575 C 1357.189218 268.07996 1362.685573 265.502626 1368.319338 263.165844 C 1373.953103 260.829061 1379.689924 258.767193 1385.49545 257.014606 C 1391.335328 255.227655 1397.243911 253.749983 1403.221198 252.581592 C 1409.198484 251.378836 1415.210124 250.48536 1421.256115 249.901164 C 1427.336459 249.282604 1433.416802 249.007689 1439.497146 249.007689 C 1445.577489 249.007689 1451.657833 249.282604 1457.738177 249.901164 C 1463.784168 250.48536 1469.795807 251.378836 1475.773094 252.581592 C 1481.750381 253.749983 1487.658964 255.227655 1493.498842 257.014606 C 1499.33872 258.767193 1505.041189 260.829061 1510.674953 263.165844 C 1516.308718 265.502626 1521.805074 268.07996 1527.164021 270.966575 C 1532.55732 273.818824 1537.778858 276.945989 1542.828635 280.34807 C 1547.912764 283.715787 1552.79078 287.358419 1557.497034 291.207238 C 1562.203289 295.090421 1566.70343 299.179791 1571.031811 303.475348 C 1575.325839 307.770904 1579.413753 312.307012 1583.295554 317.014943 C 1587.143004 321.722873 1590.784339 326.602625 1594.150857 331.6542 C 1597.551727 336.740139 1600.67778 341.963536 1603.529014 347.324391 C 1606.414601 352.685245 1609.02537 358.183558 1611.326969 363.819328 C 1613.66292 369.455099 1615.724054 375.193963 1617.476017 381.001555 C 1619.262333 386.843512 1620.739478 392.754198 1621.941806 398.699249 C 1623.109782 404.678664 1624.00294 410.692443 1624.62128 416.774952 C 1625.205267 422.823095 1625.514437 428.905604 1625.514437 434.988112 Z M 1625.514437 434.988112 " stroke="#ffffff" stroke-width="1" stroke-opacity="1" stroke-miterlimit="10"/><path fill="#43dcbf" d="M 163.898438 174.144531 C 162.917969 174.144531 161.9375 174.085938 160.960938 173.976562 C 159.984375 173.863281 159.019531 173.695312 158.0625 173.472656 C 157.105469 173.25 156.164062 172.972656 155.242188 172.640625 C 154.316406 172.3125 153.414062 171.929688 152.53125 171.492188 C 151.652344 171.058594 150.796875 170.578125 149.972656 170.042969 C 149.148438 169.511719 148.355469 168.933594 147.597656 168.3125 C 146.835938 167.6875 146.117188 167.023438 145.433594 166.320312 C 144.75 165.613281 144.109375 164.871094 143.511719 164.09375 C 142.914062 163.3125 142.363281 162.503906 141.855469 161.660156 C 141.351562 160.816406 140.898438 159.949219 140.492188 159.054688 C 140.085938 158.160156 139.734375 157.246094 139.433594 156.3125 C 139.132812 155.375 138.886719 154.429688 138.695312 153.464844 C 138.503906 152.503906 138.367188 151.53125 138.285156 150.550781 C 138.207031 149.574219 138.183594 148.59375 138.214844 147.613281 C 138.246094 146.632812 138.335938 145.65625 138.480469 144.683594 C 138.625 143.710938 138.824219 142.753906 139.078125 141.804688 C 139.332031 140.855469 139.636719 139.925781 140 139.011719 C 140.359375 138.097656 140.773438 137.210938 141.234375 136.34375 C 141.699219 135.476562 142.210938 134.640625 142.769531 133.832031 C 143.328125 133.027344 143.929688 132.253906 144.578125 131.515625 C 145.226562 130.777344 145.914062 130.078125 146.640625 129.417969 C 147.371094 128.757812 148.132812 128.144531 148.929688 127.570312 C 149.730469 127 150.558594 126.476562 151.417969 126 C 152.273438 125.523438 153.160156 125.09375 154.066406 124.71875 C 154.972656 124.34375 155.898438 124.019531 156.84375 123.75 C 157.789062 123.480469 158.746094 123.265625 159.714844 123.105469 C 160.683594 122.949219 161.660156 122.84375 162.640625 122.796875 C 163.621094 122.746094 164.601562 122.753906 165.582031 122.820312 C 166.5625 122.882812 167.535156 123.003906 168.5 123.179688 C 169.46875 123.355469 170.421875 123.585938 171.359375 123.871094 C 172.300781 124.15625 173.222656 124.492188 174.121094 124.882812 C 175.023438 125.273438 175.898438 125.714844 176.75 126.207031 C 177.601562 126.699219 178.421875 127.234375 179.210938 127.820312 C 179.996094 128.40625 180.75 129.035156 181.46875 129.703125 C 182.183594 130.375 182.859375 131.085938 183.496094 131.835938 C 184.132812 132.582031 184.722656 133.367188 185.269531 134.183594 C 185.8125 135 186.3125 135.84375 186.757812 136.71875 C 187.207031 137.589844 187.605469 138.488281 187.953125 139.40625 C 188.296875 140.324219 188.589844 141.261719 188.828125 142.210938 C 189.066406 143.164062 189.25 144.128906 189.378906 145.101562 C 189.507812 146.074219 189.578125 147.050781 189.59375 148.035156 C 189.609375 149.015625 189.570312 149.996094 189.476562 150.972656 C 189.378906 151.949219 189.226562 152.917969 189.019531 153.878906 C 188.8125 154.835938 188.550781 155.78125 188.234375 156.710938 C 187.917969 157.640625 187.550781 158.550781 187.128906 159.4375 C 186.710938 160.324219 186.242188 161.1875 185.722656 162.019531 C 185.203125 162.855469 184.640625 163.65625 184.027344 164.425781 C 183.417969 165.195312 182.765625 165.925781 182.070312 166.621094 C 180.878906 167.816406 179.585938 168.882812 178.183594 169.824219 C 176.78125 170.761719 175.296875 171.554688 173.738281 172.199219 C 172.179688 172.847656 170.570312 173.332031 168.914062 173.660156 C 167.257812 173.988281 165.585938 174.148438 163.898438 174.144531 Z M 163.898438 174.144531 " fill-opacity="1" fill-rule="nonzero"/><path stroke-linecap="butt" transform="matrix(0.113712, 0, 0, 0.113671, 0.21076, 18.300456)" fill-opacity="1" fill="#282a3a" fill-rule="nonzero" stroke-linejoin="miter" d="M 1625.514437 1144.99209 C 1625.514437 1151.108963 1625.205267 1157.157107 1624.62128 1163.239615 C 1624.00294 1169.287759 1623.109782 1175.301538 1621.941806 1181.280953 C 1620.739478 1187.260368 1619.262333 1193.171054 1617.476017 1198.978647 C 1615.724054 1204.820604 1613.66292 1210.559468 1611.326969 1216.195238 C 1609.02537 1221.796644 1606.414601 1227.294957 1603.529014 1232.690176 C 1600.67778 1238.051031 1597.551727 1243.274428 1594.150857 1248.326002 C 1590.784339 1253.411941 1587.143004 1258.291694 1583.295554 1262.999624 C 1579.413753 1267.707554 1575.325839 1272.209298 1571.031811 1276.504854 C 1566.70343 1280.834775 1562.203289 1284.924145 1557.497034 1288.772964 C 1552.79078 1292.656148 1547.912764 1296.264415 1542.828635 1299.666496 C 1537.778858 1303.034213 1532.55732 1306.161378 1527.164021 1309.047992 C 1521.805074 1311.900242 1516.308718 1314.51194 1510.674953 1316.848723 C 1505.041189 1319.185506 1499.33872 1321.213009 1493.498842 1322.99996 C 1487.658964 1324.752547 1481.750381 1326.230219 1475.773094 1327.432975 C 1469.795807 1328.601366 1463.784168 1329.494842 1457.738177 1330.113402 C 1451.657833 1330.697598 1445.577489 1331.006878 1439.497146 1331.006878 C 1433.416802 1331.006878 1427.336459 1330.697598 1421.256115 1330.113402 C 1415.210124 1329.494842 1409.198484 1328.601366 1403.221198 1327.432975 C 1397.243911 1326.230219 1391.335328 1324.752547 1385.49545 1322.99996 C 1379.689924 1321.213009 1373.953103 1319.185506 1368.319338 1316.848723 C 1362.685573 1314.51194 1357.189218 1311.900242 1351.830271 1309.047992 C 1346.436972 1306.161378 1341.215434 1303.034213 1336.165657 1299.666496 C 1331.11588 1296.264415 1326.203512 1292.656148 1321.497257 1288.772964 C 1316.791003 1284.924145 1312.290861 1280.834775 1307.962481 1276.504854 C 1303.668453 1272.209298 1299.580538 1267.707554 1295.733089 1262.999624 C 1291.851288 1258.291694 1288.244305 1253.411941 1284.843434 1248.326002 C 1281.476917 1243.274428 1278.350864 1238.051031 1275.465277 1232.690176 C 1272.579691 1227.294957 1270.003274 1221.796644 1267.667323 1216.195238 C 1265.331371 1210.559468 1263.270238 1204.820604 1261.518275 1198.978647 C 1259.731959 1193.171054 1258.254813 1187.260368 1257.086838 1181.280953 C 1255.88451 1175.301538 1254.991352 1169.287759 1254.407364 1163.239615 C 1253.789024 1157.157107 1253.514206 1151.108963 1253.514206 1144.99209 C 1253.514206 1138.909582 1253.789024 1132.827073 1254.407364 1126.77893 C 1254.991352 1120.696421 1255.88451 1114.682642 1257.086838 1108.703227 C 1258.254813 1102.723812 1259.731959 1096.84749 1261.518275 1091.005533 C 1263.270238 1085.163576 1265.331371 1079.459077 1267.667323 1073.823306 C 1270.003274 1068.187536 1272.579691 1062.689223 1275.465277 1057.328369 C 1278.350864 1051.933149 1281.476917 1046.744117 1284.843434 1041.658178 C 1288.244305 1036.606603 1291.851288 1031.726851 1295.733089 1027.01892 C 1299.580538 1022.31099 1303.668453 1017.774882 1307.962481 1013.479326 C 1312.290861 1009.183769 1316.791003 1005.094399 1321.497257 1001.211216 C 1326.203512 997.362397 1331.11588 993.719765 1336.165657 990.352048 C 1341.215434 986.949967 1346.436972 983.822802 1351.830271 980.970552 C 1357.189218 978.083938 1362.685573 975.506604 1368.319338 973.169821 C 1373.953103 970.833039 1379.689924 968.771171 1385.49545 967.018584 C 1391.335328 965.231633 1397.243911 963.753961 1403.221198 962.58557 C 1409.198484 961.382814 1415.210124 960.489338 1421.256115 959.905142 C 1427.336459 959.286582 1433.416802 959.011667 1439.497146 959.011667 C 1445.577489 959.011667 1451.657833 959.286582 1457.738177 959.905142 C 1463.784168 960.489338 1469.795807 961.382814 1475.773094 962.58557 C 1481.750381 963.753961 1487.658964 965.231633 1493.498842 967.018584 C 1499.33872 968.771171 1505.041189 970.833039 1510.674953 973.169821 C 1516.308718 975.506604 1521.805074 978.083938 1527.164021 980.970552 C 1532.55732 983.822802 1537.778858 986.949967 1542.828635 990.352048 C 1547.912764 993.719765 1552.79078 997.362397 1557.497034 1001.211216 C 1562.203289 1005.094399 1566.70343 1009.183769 1571.031811 1013.479326 C 1575.325839 1017.774882 1579.413753 1022.31099 1583.295554 1027.01892 C 1587.143004 1031.726851 1590.784339 1036.606603 1594.150857 1041.658178 C 1597.551727 1046.744117 1600.67778 1051.933149 1603.529014 1057.328369 C 1606.414601 1062.689223 1609.02537 1068.187536 1611.326969 1073.823306 C 1613.66292 1079.459077 1615.724054 1085.163576 1617.476017 1091.005533 C 1619.262333 1096.84749 1620.739478 1102.723812 1621.941806 1108.703227 C 1623.109782 1114.682642 1624.00294 1120.696421 1624.62128 1126.77893 C 1625.205267 1132.827073 1625.514437 1138.909582 1625.514437 1144.99209 Z M 1625.514437 1144.99209 " stroke="#ffffff" stroke-width="1" stroke-opacity="1" stroke-miterlimit="10"/><path fill="#36bbeb" d="M 163.898438 254.851562 C 162.917969 254.851562 161.9375 254.792969 160.960938 254.683594 C 159.984375 254.570312 159.019531 254.402344 158.0625 254.179688 C 157.105469 253.957031 156.164062 253.679688 155.242188 253.347656 C 154.316406 253.015625 153.414062 252.636719 152.53125 252.199219 C 151.652344 251.765625 150.796875 251.28125 149.972656 250.75 C 149.148438 250.21875 148.355469 249.640625 147.597656 249.019531 C 146.835938 248.394531 146.117188 247.730469 145.433594 247.027344 C 144.75 246.320312 144.109375 245.578125 143.511719 244.800781 C 142.914062 244.019531 142.363281 243.210938 141.855469 242.367188 C 141.351562 241.523438 140.894531 240.65625 140.492188 239.761719 C 140.085938 238.867188 139.734375 237.953125 139.433594 237.019531 C 139.132812 236.082031 138.886719 235.132812 138.695312 234.171875 C 138.503906 233.207031 138.367188 232.238281 138.285156 231.257812 C 138.207031 230.28125 138.183594 229.300781 138.214844 228.320312 C 138.246094 227.339844 138.335938 226.363281 138.480469 225.390625 C 138.625 224.417969 138.824219 223.460938 139.078125 222.511719 C 139.332031 221.5625 139.636719 220.632812 140 219.71875 C 140.359375 218.804688 140.773438 217.914062 141.234375 217.050781 C 141.699219 216.183594 142.210938 215.347656 142.769531 214.539062 C 143.328125 213.734375 143.929688 212.960938 144.578125 212.222656 C 145.226562 211.484375 145.914062 210.785156 146.640625 210.125 C 147.371094 209.464844 148.132812 208.851562 148.929688 208.277344 C 149.730469 207.707031 150.558594 207.183594 151.417969 206.707031 C 152.273438 206.226562 153.160156 205.800781 154.066406 205.425781 C 154.972656 205.050781 155.898438 204.726562 156.84375 204.457031 C 157.789062 204.1875 158.746094 203.972656 159.714844 203.8125 C 160.683594 203.652344 161.660156 203.550781 162.640625 203.5 C 163.621094 203.453125 164.601562 203.460938 165.582031 203.527344 C 166.5625 203.589844 167.535156 203.710938 168.5 203.886719 C 169.46875 204.0625 170.421875 204.292969 171.359375 204.578125 C 172.300781 204.863281 173.222656 205.199219 174.121094 205.589844 C 175.023438 205.980469 175.898438 206.421875 176.75 206.914062 C 177.601562 207.402344 178.421875 207.941406 179.207031 208.527344 C 179.996094 209.113281 180.75 209.738281 181.46875 210.410156 C 182.183594 211.082031 182.859375 211.792969 183.496094 212.542969 C 184.132812 213.289062 184.722656 214.074219 185.269531 214.890625 C 185.8125 215.707031 186.3125 216.550781 186.757812 217.421875 C 187.207031 218.296875 187.605469 219.191406 187.953125 220.113281 C 188.296875 221.03125 188.589844 221.964844 188.828125 222.917969 C 189.066406 223.871094 189.25 224.835938 189.378906 225.808594 C 189.507812 226.78125 189.578125 227.757812 189.59375 228.742188 C 189.609375 229.722656 189.570312 230.703125 189.476562 231.679688 C 189.378906 232.65625 189.226562 233.625 189.019531 234.585938 C 188.8125 235.542969 188.550781 236.488281 188.234375 237.417969 C 187.917969 238.347656 187.550781 239.257812 187.128906 240.144531 C 186.710938 241.03125 186.242188 241.894531 185.722656 242.726562 C 185.203125 243.5625 184.640625 244.363281 184.027344 245.132812 C 183.417969 245.902344 182.765625 246.632812 182.070312 247.328125 C 180.878906 248.523438 179.585938 249.589844 178.183594 250.53125 C 176.78125 251.46875 175.296875 252.261719 173.738281 252.90625 C 172.179688 253.554688 170.570312 254.039062 168.914062 254.367188 C 167.257812 254.695312 165.585938 254.855469 163.898438 254.851562 Z M 163.898438 254.851562 " fill-opacity="1" fill-rule="nonzero"/><path stroke-linecap="butt" transform="matrix(0.113712, 0, 0, 0.113671, 0.21076, 18.300456)" fill-opacity="1" fill="#282a3a" fill-rule="nonzero" stroke-linejoin="miter" d="M 1625.514437 1854.996068 C 1625.514437 1861.078576 1625.205267 1867.161084 1624.62128 1873.243593 C 1624.00294 1879.291737 1623.109782 1885.305516 1621.941806 1891.284931 C 1620.739478 1897.264346 1619.262333 1903.175032 1617.476017 1908.982625 C 1615.724054 1914.824582 1613.66292 1920.563446 1611.326969 1926.164851 C 1609.02537 1931.800622 1606.414601 1937.298934 1603.529014 1942.694154 C 1600.67778 1948.055008 1597.551727 1953.278405 1594.150857 1958.32998 C 1590.784339 1963.415919 1587.143004 1968.295672 1583.295554 1973.003602 C 1579.413753 1977.711532 1575.325839 1982.213275 1571.031811 1986.508832 C 1566.70343 1990.838753 1562.203289 1994.928123 1557.497034 1998.776942 C 1552.79078 2002.660125 1547.912764 2006.268393 1542.828635 2009.63611 C 1537.778858 2013.03819 1532.55732 2016.165356 1527.164021 2019.05197 C 1521.805074 2021.904219 1516.308718 2024.515918 1510.674953 2026.852701 C 1505.041189 2029.189484 1499.33872 2031.216986 1493.498842 2033.003938 C 1487.658964 2034.756525 1481.750381 2036.234197 1475.773094 2037.436953 C 1469.795807 2038.605344 1463.784168 2039.49882 1457.738177 2040.11738 C 1451.657833 2040.701576 1445.577489 2041.010856 1439.497146 2041.010856 C 1433.416802 2041.010856 1427.336459 2040.701576 1421.256115 2040.11738 C 1415.210124 2039.49882 1409.198484 2038.605344 1403.221198 2037.436953 C 1397.243911 2036.234197 1391.335328 2034.756525 1385.49545 2033.003938 C 1379.689924 2031.216986 1373.953103 2029.189484 1368.319338 2026.852701 C 1362.685573 2024.515918 1357.189218 2021.904219 1351.830271 2019.05197 C 1346.436972 2016.165356 1341.215434 2013.03819 1336.165657 2009.63611 C 1331.11588 2006.268393 1326.203512 2002.660125 1321.497257 1998.776942 C 1316.791003 1994.928123 1312.290861 1990.838753 1307.962481 1986.508832 C 1303.668453 1982.213275 1299.580538 1977.711532 1295.733089 1973.003602 C 1291.851288 1968.295672 1288.244305 1963.415919 1284.843434 1958.32998 C 1281.476917 1953.278405 1278.350864 1948.055008 1275.465277 1942.694154 C 1272.579691 1937.298934 1270.003274 1931.800622 1267.667323 1926.164851 C 1265.331371 1920.563446 1263.270238 1914.824582 1261.518275 1908.982625 C 1259.731959 1903.175032 1258.254813 1897.264346 1257.086838 1891.284931 C 1255.88451 1885.305516 1254.991352 1879.291737 1254.407364 1873.243593 C 1253.789024 1867.161084 1253.514206 1861.078576 1253.514206 1854.996068 C 1253.514206 1848.91356 1253.789024 1842.831051 1254.407364 1836.782907 C 1254.991352 1830.700399 1255.88451 1824.68662 1257.086838 1818.707205 C 1258.254813 1812.72779 1259.731959 1806.851468 1261.518275 1801.009511 C 1263.270238 1795.167554 1265.331371 1789.463055 1267.667323 1783.827284 C 1270.003274 1778.191514 1272.579691 1772.693201 1275.465277 1767.332346 C 1278.350864 1761.937127 1281.476917 1756.71373 1284.843434 1751.662156 C 1288.244305 1746.610581 1291.851288 1741.696464 1295.733089 1736.988534 C 1299.580538 1732.280604 1303.668453 1727.77886 1307.962481 1723.483304 C 1312.290861 1719.153382 1316.791003 1715.098377 1321.497257 1711.215194 C 1326.203512 1707.366375 1331.11588 1703.723743 1336.165657 1700.356026 C 1341.215434 1696.953945 1346.436972 1693.82678 1351.830271 1690.97453 C 1357.189218 1688.087916 1362.685573 1685.476218 1368.319338 1683.173799 C 1373.953103 1680.837017 1379.689924 1678.775149 1385.49545 1677.022562 C 1391.335328 1675.235611 1397.243911 1673.757939 1403.221198 1672.589548 C 1409.198484 1671.386792 1415.210124 1670.493316 1421.256115 1669.90912 C 1427.336459 1669.29056 1433.416802 1669.015644 1439.497146 1669.015644 C 1445.577489 1669.015644 1451.657833 1669.29056 1457.738177 1669.90912 C 1463.784168 1670.493316 1469.795807 1671.386792 1475.773094 1672.589548 C 1481.750381 1673.757939 1487.658964 1675.235611 1493.498842 1677.022562 C 1499.33872 1678.775149 1505.041189 1680.837017 1510.674953 1683.173799 C 1516.308718 1685.476218 1521.805074 1688.087916 1527.164021 1690.97453 C 1532.55732 1693.82678 1537.778858 1696.953945 1542.828635 1700.356026 C 1547.912764 1703.723743 1552.79078 1707.366375 1557.497034 1711.215194 C 1562.203289 1715.098377 1566.70343 1719.153382 1571.031811 1723.483304 C 1575.325839 1727.77886 1579.413753 1732.280604 1583.295554 1736.988534 C 1587.143004 1741.696464 1590.784339 1746.610581 1594.150857 1751.662156 C 1597.551727 1756.71373 1600.67778 1761.937127 1603.529014 1767.332346 C 1606.414601 1772.693201 1609.02537 1778.191514 1611.326969 1783.827284 C 1613.66292 1789.463055 1615.724054 1795.167554 1617.476017 1801.009511 C 1619.262333 1806.851468 1620.739478 1812.72779 1621.941806 1818.707205 C 1623.109782 1824.68662 1624.00294 1830.700399 1624.62128 1836.782907 C 1625.205267 1842.831051 1625.514437 1848.91356 1625.514437 1854.996068 Z M 1625.514437 1854.996068 " stroke="#ffffff" stroke-width="1" stroke-opacity="1" stroke-miterlimit="10"/><g clip-path="url(#507a450dc5)"><path fill="#9a55e5" d="M 163.898438 335.558594 C 162.917969 335.558594 161.9375 335.5 160.960938 335.386719 C 159.984375 335.277344 159.019531 335.109375 158.0625 334.886719 C 157.105469 334.664062 156.164062 334.386719 155.242188 334.054688 C 154.316406 333.722656 153.414062 333.339844 152.53125 332.90625 C 151.652344 332.472656 150.796875 331.988281 149.972656 331.457031 C 149.148438 330.925781 148.355469 330.347656 147.597656 329.726562 C 146.835938 329.101562 146.117188 328.4375 145.433594 327.730469 C 144.75 327.027344 144.109375 326.285156 143.511719 325.503906 C 142.914062 324.726562 142.363281 323.914062 141.855469 323.074219 C 141.351562 322.230469 140.894531 321.363281 140.492188 320.46875 C 140.085938 319.574219 139.734375 318.660156 139.433594 317.726562 C 139.132812 316.789062 138.886719 315.839844 138.695312 314.878906 C 138.503906 313.914062 138.367188 312.945312 138.285156 311.964844 C 138.207031 310.988281 138.183594 310.007812 138.214844 309.027344 C 138.246094 308.042969 138.335938 307.066406 138.480469 306.097656 C 138.625 305.125 138.824219 304.164062 139.078125 303.21875 C 139.332031 302.269531 139.636719 301.339844 140 300.425781 C 140.359375 299.511719 140.773438 298.621094 141.234375 297.757812 C 141.699219 296.890625 142.210938 296.054688 142.769531 295.246094 C 143.328125 294.4375 143.929688 293.667969 144.578125 292.929688 C 145.226562 292.191406 145.914062 291.492188 146.640625 290.832031 C 147.371094 290.171875 148.132812 289.558594 148.929688 288.984375 C 149.730469 288.414062 150.558594 287.886719 151.417969 287.410156 C 152.273438 286.933594 153.160156 286.507812 154.066406 286.132812 C 154.972656 285.757812 155.898438 285.433594 156.84375 285.164062 C 157.789062 284.894531 158.746094 284.679688 159.714844 284.519531 C 160.683594 284.359375 161.660156 284.257812 162.640625 284.207031 C 163.621094 284.160156 164.601562 284.167969 165.582031 284.234375 C 166.5625 284.296875 167.535156 284.417969 168.5 284.59375 C 169.46875 284.769531 170.421875 285 171.359375 285.285156 C 172.300781 285.570312 173.222656 285.90625 174.121094 286.296875 C 175.023438 286.6875 175.898438 287.128906 176.75 287.621094 C 177.601562 288.109375 178.421875 288.648438 179.207031 289.234375 C 179.996094 289.820312 180.75 290.445312 181.46875 291.117188 C 182.183594 291.789062 182.859375 292.5 183.496094 293.246094 C 184.132812 293.996094 184.722656 294.777344 185.269531 295.59375 C 185.8125 296.410156 186.3125 297.257812 186.757812 298.128906 C 187.207031 299.003906 187.605469 299.898438 187.953125 300.820312 C 188.296875 301.738281 188.589844 302.671875 188.828125 303.625 C 189.066406 304.578125 189.25 305.542969 189.378906 306.515625 C 189.507812 307.488281 189.578125 308.464844 189.59375 309.449219 C 189.609375 310.429688 189.570312 311.410156 189.476562 312.386719 C 189.378906 313.363281 189.226562 314.332031 189.019531 315.292969 C 188.8125 316.25 188.550781 317.195312 188.234375 318.125 C 187.917969 319.054688 187.550781 319.964844 187.128906 320.851562 C 186.710938 321.738281 186.242188 322.601562 185.722656 323.433594 C 185.203125 324.265625 184.640625 325.070312 184.027344 325.839844 C 183.417969 326.605469 182.765625 327.339844 182.070312 328.03125 C 180.878906 329.230469 179.585938 330.296875 178.183594 331.238281 C 176.78125 332.175781 175.296875 332.96875 173.738281 333.613281 C 172.179688 334.261719 170.570312 334.746094 168.914062 335.074219 C 167.257812 335.398438 165.585938 335.5625 163.898438 335.558594 Z M 163.898438 335.558594 " fill-opacity="1" fill-rule="nonzero"/></g><path stroke-linecap="butt" transform="matrix(0.113712, 0, 0, 0.113671, 0.21076, 18.300456)" fill-opacity="1" fill="#282a3a" fill-rule="nonzero" stroke-linejoin="miter" d="M 1625.514437 2565.000046 C 1625.514437 2571.082554 1625.205267 2577.165062 1624.62128 2583.247571 C 1624.00294 2589.295715 1623.109782 2595.309494 1621.941806 2601.288909 C 1620.739478 2607.268324 1619.262333 2613.17901 1617.476017 2618.986603 C 1615.724054 2624.82856 1613.66292 2630.567423 1611.326969 2636.168829 C 1609.02537 2641.8046 1606.414601 2647.302912 1603.529014 2652.663767 C 1600.67778 2658.058986 1597.551727 2663.282383 1594.150857 2668.333958 C 1590.784339 2673.385533 1587.143004 2678.29965 1583.295554 2683.00758 C 1579.413753 2687.71551 1575.325839 2692.217253 1571.031811 2696.51281 C 1566.70343 2700.842731 1562.203289 2704.932101 1557.497034 2708.78092 C 1552.79078 2712.629739 1547.912764 2716.272371 1542.828635 2719.640087 C 1537.778858 2723.042168 1532.55732 2726.169334 1527.164021 2729.021583 C 1521.805074 2731.908197 1516.308718 2734.519896 1510.674953 2736.856679 C 1505.041189 2739.159097 1499.33872 2741.220964 1493.498842 2742.973551 C 1487.658964 2744.760503 1481.750381 2746.238175 1475.773094 2747.44093 C 1469.795807 2748.609322 1463.784168 2749.502798 1457.738177 2750.121358 C 1451.657833 2750.705554 1445.577489 2751.014834 1439.497146 2751.014834 C 1433.416802 2751.014834 1427.336459 2750.705554 1421.256115 2750.121358 C 1415.210124 2749.502798 1409.198484 2748.609322 1403.221198 2747.44093 C 1397.243911 2746.238175 1391.335328 2744.760503 1385.49545 2743.007916 C 1379.689924 2741.220964 1373.953103 2739.159097 1368.319338 2736.856679 C 1362.685573 2734.519896 1357.189218 2731.908197 1351.830271 2729.021583 C 1346.436972 2726.169334 1341.215434 2723.042168 1336.165657 2719.640087 C 1331.11588 2716.272371 1326.203512 2712.629739 1321.497257 2708.78092 C 1316.791003 2704.932101 1312.290861 2700.842731 1307.962481 2696.51281 C 1303.668453 2692.217253 1299.580538 2687.71551 1295.733089 2683.00758 C 1291.851288 2678.29965 1288.244305 2673.385533 1284.843434 2668.333958 C 1281.476917 2663.282383 1278.350864 2658.058986 1275.465277 2652.663767 C 1272.579691 2647.302912 1270.003274 2641.8046 1267.667323 2636.168829 C 1265.331371 2630.567423 1263.270238 2624.82856 1261.518275 2618.986603 C 1259.731959 2613.17901 1258.254813 2607.268324 1257.086838 2601.288909 C 1255.88451 2595.309494 1254.991352 2589.295715 1254.407364 2583.247571 C 1253.789024 2577.165062 1253.514206 2571.082554 1253.514206 2565.000046 C 1253.514206 2558.917537 1253.789024 2552.835029 1254.407364 2546.752521 C 1254.991352 2540.704377 1255.88451 2534.690598 1257.086838 2528.711183 C 1258.254813 2522.731768 1259.731959 2516.821082 1261.518275 2511.013489 C 1263.270238 2505.171532 1265.331371 2499.432668 1267.667323 2493.831262 C 1270.003274 2488.195492 1272.579691 2482.697179 1275.465277 2477.336324 C 1278.350864 2471.941105 1281.476917 2466.717708 1284.843434 2461.666134 C 1288.244305 2456.614559 1291.851288 2451.700442 1295.733089 2446.992512 C 1299.580538 2442.284582 1303.668453 2437.782838 1307.962481 2433.487281 C 1312.290861 2429.15736 1316.791003 2425.06799 1321.497257 2421.219171 C 1326.203512 2417.370353 1331.11588 2413.727721 1336.165657 2410.360004 C 1341.215434 2406.957923 1346.436972 2403.830758 1351.830271 2400.978508 C 1357.189218 2398.091894 1362.685573 2395.480196 1368.319338 2393.143413 C 1373.953103 2390.840994 1379.689924 2388.779127 1385.49545 2386.992176 C 1391.335328 2385.239588 1397.243911 2383.761917 1403.221198 2382.559161 C 1409.198484 2381.39077 1415.210124 2380.497294 1421.256115 2379.878734 C 1427.336459 2379.294538 1433.416802 2378.985258 1439.497146 2378.985258 C 1445.577489 2378.985258 1451.657833 2379.294538 1457.738177 2379.878734 C 1463.784168 2380.497294 1469.795807 2381.39077 1475.773094 2382.559161 C 1481.750381 2383.761917 1487.658964 2385.239588 1493.498842 2386.992176 C 1499.33872 2388.779127 1505.041189 2390.840994 1510.674953 2393.143413 C 1516.308718 2395.480196 1521.805074 2398.091894 1527.164021 2400.978508 C 1532.55732 2403.830758 1537.778858 2406.957923 1542.828635 2410.360004 C 1547.912764 2413.727721 1552.79078 2417.370353 1557.497034 2421.219171 C 1562.203289 2425.06799 1566.70343 2429.15736 1571.031811 2433.487281 C 1575.325839 2437.782838 1579.413753 2442.284582 1583.295554 2446.992512 C 1587.143004 2451.700442 1590.784339 2456.614559 1594.150857 2461.666134 C 1597.551727 2466.717708 1600.67778 2471.941105 1603.529014 2477.336324 C 1606.414601 2482.697179 1609.02537 2488.195492 1611.326969 2493.831262 C 1613.66292 2499.432668 1615.724054 2505.171532 1617.476017 2511.013489 C 1619.262333 2516.821082 1620.739478 2522.731768 1621.941806 2528.711183 C 1623.109782 2534.690598 1624.00294 2540.704377 1624.62128 2546.752521 C 1625.205267 2552.835029 1625.514437 2558.917537 1625.514437 2565.000046 Z M 1625.514437 2565.000046 " stroke="#ffffff" stroke-width="1" stroke-opacity="1" stroke-miterlimit="10"/><g fill="#43dcbf" fill-opacity="1"><g transform="translate(223.26418, 154.597593)"><g><path d="M 2.09375 0.15625 C 1.632812 0.15625 1.289062 0.0195312 1.0625 -0.25 C 0.832031 -0.519531 0.71875 -0.847656 0.71875 -1.234375 C 0.71875 -1.628906 0.835938 -1.957031 1.078125 -2.21875 C 1.316406 -2.488281 1.65625 -2.625 2.09375 -2.625 C 2.53125 -2.625 2.875 -2.507812 3.125 -2.28125 C 3.382812 -2.0625 3.515625 -1.726562 3.515625 -1.28125 C 3.515625 -0.832031 3.394531 -0.476562 3.15625 -0.21875 C 2.914062 0.03125 2.5625 0.15625 2.09375 0.15625 Z M 2.09375 0.15625 "/></g></g></g></svg>