<svg width="24" height="24" viewBox="0 0 24 24" fill="none" xmlns="http://www.w3.org/2000/svg"><path fill-rule="evenodd" clip-rule="evenodd" d="M12.81 4.5h-1.62c-1.765 0-2.965.002-3.878.104-.884.098-1.315.273-1.613.497a3 3 0 0 0-.598.598c-.224.298-.4.729-.497 1.613-.102.913-.104 2.113-.104 3.878v1.62c0 1.765.002 2.965.104 3.878.085.77.23 1.196.413 1.49l7.773-7.773.03-.03c.484-.484.89-.89 1.256-1.183.384-.307.79-.546 1.287-.616.245-.035.495-.035.74 0 .496.07.903.309 1.287.616.365.292.772.7 1.257 1.184l.03.03.823.823v-.039c0-1.765-.002-2.965-.104-3.878-.098-.884-.273-1.315-.497-1.613a3.003 3.003 0 0 0-.598-.598c-.298-.224-.729-.4-1.613-.497-.913-.102-2.113-.104-3.878-.104ZM7.312 19.396c-.515-.057-.877-.14-1.147-.244l7.685-7.686c.522-.522.87-.869 1.163-1.103.28-.224.439-.285.561-.302.106-.015.212-.015.318 0 .122.017.28.078.56.302.293.234.642.581 1.164 1.103L19.5 13.35c-.002 1.475-.013 2.521-.104 3.338-.098.884-.273 1.315-.497 1.613-.17.227-.371.428-.598.598-.298.224-.729.4-1.613.497-.913.102-2.113.104-3.878.104h-1.62c-1.765 0-2.965-.002-3.878-.104ZM3.902 4.798C3 5.998 3 7.73 3 11.19v1.62c0 3.46 0 5.191.901 6.392.255.34.557.641.897.897C5.998 21 7.73 21 11.19 21h1.62c3.46 0 5.191 0 6.392-.901.34-.256.641-.557.897-.897.901-1.2.901-2.931.901-6.392v-1.62c0-3.46 0-5.191-.901-6.392a4.501 4.501 0 0 0-.897-.897C18.002 3 16.27 3 12.81 3h-1.62c-3.46 0-5.191 0-6.392.901a4.5 4.5 0 0 0-.897.897ZM8.5 10.5a2 2 0 1 0 0-4 2 2 0 0 0 0 4Z" fill="currentColor"></path></svg>