<svg xmlns="http://www.w3.org/2000/svg" xmlns:xlink="http://www.w3.org/1999/xlink" width="500" zoomAndPan="magnify" viewBox="0 0 375 374.999991" height="500" preserveAspectRatio="xMidYMid meet" version="1.0"><defs><g/><clipPath id="68a360b255"><path d="M 134 219 L 241 219 L 241 313.910156 L 134 313.910156 Z M 134 219 " clip-rule="nonzero"/></clipPath><clipPath id="80e03c6d5c"><path d="M 50.546875 124 L 324.296875 124 L 324.296875 272 L 50.546875 272 Z M 50.546875 124 " clip-rule="nonzero"/></clipPath><clipPath id="99948cb262"><path d="M 113 61.160156 L 262 61.160156 L 262 114 L 113 114 Z M 113 61.160156 " clip-rule="nonzero"/></clipPath></defs><g clip-path="url(#68a360b255)"><path fill="#dc5598" d="M 134.859375 219.078125 L 134.859375 303.300781 C 134.859375 303.992188 134.929688 304.679688 135.0625 305.355469 C 135.199219 306.035156 135.398438 306.691406 135.660156 307.332031 C 135.925781 307.96875 136.25 308.578125 136.632812 309.152344 C 137.019531 309.726562 137.457031 310.257812 137.945312 310.746094 C 138.433594 311.234375 138.964844 311.671875 139.539062 312.054688 C 140.113281 312.441406 140.722656 312.765625 141.359375 313.027344 C 141.996094 313.292969 142.65625 313.492188 143.335938 313.628906 C 144.011719 313.761719 144.695312 313.828125 145.386719 313.828125 L 229.609375 313.828125 C 230.300781 313.828125 230.988281 313.761719 231.664062 313.628906 C 232.34375 313.492188 233 313.292969 233.640625 313.027344 C 234.277344 312.765625 234.886719 312.441406 235.460938 312.054688 C 236.035156 311.671875 236.566406 311.234375 237.054688 310.746094 C 237.542969 310.257812 237.980469 309.726562 238.363281 309.152344 C 238.75 308.578125 239.074219 307.96875 239.335938 307.332031 C 239.601562 306.691406 239.800781 306.035156 239.9375 305.355469 C 240.070312 304.679688 240.136719 303.992188 240.140625 303.300781 L 240.140625 219.078125 Z M 208.554688 292.773438 L 166.445312 292.773438 C 165.753906 292.773438 165.066406 292.707031 164.390625 292.570312 C 163.710938 292.4375 163.054688 292.238281 162.414062 291.972656 C 161.777344 291.707031 161.167969 291.382812 160.59375 291 C 160.019531 290.617188 159.488281 290.179688 159 289.691406 C 158.511719 289.203125 158.074219 288.671875 157.691406 288.09375 C 157.304688 287.519531 156.980469 286.914062 156.71875 286.273438 C 156.453125 285.636719 156.253906 284.976562 156.117188 284.300781 C 155.984375 283.621094 155.917969 282.9375 155.917969 282.246094 C 155.917969 281.554688 155.984375 280.871094 156.117188 280.191406 C 156.253906 279.515625 156.453125 278.855469 156.71875 278.21875 C 156.980469 277.578125 157.304688 276.972656 157.691406 276.398438 C 158.074219 275.824219 158.511719 275.292969 159 274.800781 C 159.488281 274.3125 160.019531 273.878906 160.59375 273.492188 C 161.167969 273.109375 161.777344 272.785156 162.414062 272.519531 C 163.054688 272.253906 163.710938 272.054688 164.390625 271.921875 C 165.066406 271.785156 165.753906 271.71875 166.445312 271.71875 L 208.554688 271.71875 C 209.246094 271.71875 209.929688 271.785156 210.609375 271.921875 C 211.285156 272.054688 211.945312 272.253906 212.585938 272.519531 C 213.222656 272.785156 213.828125 273.109375 214.402344 273.492188 C 214.980469 273.878906 215.511719 274.3125 216 274.800781 C 216.488281 275.292969 216.925781 275.824219 217.308594 276.398438 C 217.691406 276.972656 218.015625 277.578125 218.28125 278.21875 C 218.546875 278.855469 218.746094 279.515625 218.878906 280.191406 C 219.015625 280.871094 219.082031 281.554688 219.082031 282.246094 C 219.082031 282.9375 219.015625 283.621094 218.878906 284.300781 C 218.746094 284.976562 218.546875 285.636719 218.28125 286.273438 C 218.015625 286.914062 217.691406 287.519531 217.308594 288.09375 C 216.925781 288.671875 216.488281 289.203125 216 289.691406 C 215.511719 290.179688 214.980469 290.617188 214.402344 291 C 213.828125 291.382812 213.222656 291.707031 212.585938 291.972656 C 211.945312 292.238281 211.285156 292.4375 210.609375 292.570312 C 209.929688 292.707031 209.246094 292.773438 208.554688 292.773438 Z M 208.554688 261.191406 L 166.445312 261.191406 C 165.753906 261.191406 165.066406 261.125 164.390625 260.988281 C 163.710938 260.855469 163.054688 260.652344 162.414062 260.390625 C 161.777344 260.125 161.167969 259.800781 160.59375 259.417969 C 160.019531 259.03125 159.488281 258.597656 159 258.105469 C 158.511719 257.617188 158.074219 257.085938 157.691406 256.511719 C 157.304688 255.9375 156.980469 255.332031 156.71875 254.691406 C 156.453125 254.054688 156.253906 253.394531 156.117188 252.71875 C 155.984375 252.039062 155.917969 251.355469 155.917969 250.664062 C 155.917969 249.972656 155.984375 249.289062 156.117188 248.609375 C 156.253906 247.929688 156.453125 247.273438 156.71875 246.632812 C 156.980469 245.996094 157.304688 245.390625 157.691406 244.8125 C 158.074219 244.238281 158.511719 243.707031 159 243.21875 C 159.488281 242.730469 160.019531 242.292969 160.59375 241.910156 C 161.167969 241.527344 161.777344 241.199219 162.414062 240.9375 C 163.054688 240.671875 163.710938 240.472656 164.390625 240.335938 C 165.066406 240.203125 165.753906 240.136719 166.445312 240.136719 L 208.554688 240.136719 C 209.246094 240.136719 209.929688 240.203125 210.609375 240.335938 C 211.285156 240.472656 211.945312 240.671875 212.585938 240.9375 C 213.222656 241.199219 213.828125 241.527344 214.402344 241.910156 C 214.980469 242.292969 215.511719 242.730469 216 243.21875 C 216.488281 243.707031 216.925781 244.238281 217.308594 244.8125 C 217.691406 245.390625 218.015625 245.996094 218.28125 246.632812 C 218.546875 247.273438 218.746094 247.929688 218.878906 248.609375 C 219.015625 249.289062 219.082031 249.972656 219.082031 250.664062 C 219.082031 251.355469 219.015625 252.039062 218.878906 252.71875 C 218.746094 253.394531 218.546875 254.054688 218.28125 254.691406 C 218.015625 255.332031 217.691406 255.9375 217.308594 256.511719 C 216.925781 257.085938 216.488281 257.617188 216 258.105469 C 215.511719 258.597656 214.980469 259.03125 214.402344 259.417969 C 213.828125 259.800781 213.222656 260.125 212.585938 260.390625 C 211.945312 260.652344 211.285156 260.855469 210.609375 260.988281 C 209.929688 261.125 209.246094 261.191406 208.554688 261.191406 Z M 208.554688 261.191406 " fill-opacity="1" fill-rule="nonzero"/></g><g clip-path="url(#80e03c6d5c)"><path fill="#dc5598" d="M 292.777344 124.328125 L 82.222656 124.328125 C 81.1875 124.328125 80.152344 124.378906 79.125 124.476562 C 78.09375 124.578125 77.070312 124.726562 76.058594 124.929688 C 75.042969 125.128906 74.039062 125.378906 73.046875 125.679688 C 72.058594 125.980469 71.085938 126.328125 70.128906 126.722656 C 69.171875 127.117188 68.238281 127.558594 67.324219 128.046875 C 66.410156 128.535156 65.523438 129.0625 64.664062 129.640625 C 63.804688 130.214844 62.972656 130.828125 62.171875 131.484375 C 61.375 132.140625 60.609375 132.835938 59.875 133.566406 C 59.144531 134.300781 58.449219 135.066406 57.792969 135.863281 C 57.136719 136.664062 56.523438 137.496094 55.949219 138.355469 C 55.371094 139.214844 54.84375 140.101562 54.355469 141.015625 C 53.867188 141.929688 53.425781 142.863281 53.03125 143.820312 C 52.636719 144.777344 52.289062 145.75 51.988281 146.738281 C 51.6875 147.730469 51.4375 148.734375 51.238281 149.746094 C 51.035156 150.761719 50.886719 151.785156 50.785156 152.816406 C 50.6875 153.84375 50.636719 154.878906 50.636719 155.914062 L 50.636719 240.136719 C 50.640625 241.167969 50.695312 242.199219 50.796875 243.226562 C 50.902344 244.257812 51.054688 245.277344 51.261719 246.289062 C 51.464844 247.304688 51.714844 248.304688 52.019531 249.292969 C 52.320312 250.28125 52.667969 251.253906 53.066406 252.207031 C 53.464844 253.160156 53.90625 254.09375 54.394531 255.003906 C 54.882812 255.917969 55.414062 256.800781 55.988281 257.660156 C 56.5625 258.519531 57.179688 259.347656 57.835938 260.148438 C 58.492188 260.945312 59.183594 261.710938 59.914062 262.441406 C 60.644531 263.171875 61.410156 263.867188 62.210938 264.519531 C 63.007812 265.175781 63.835938 265.792969 64.695312 266.367188 C 65.554688 266.941406 66.441406 267.472656 67.351562 267.960938 C 68.261719 268.449219 69.195312 268.894531 70.148438 269.289062 C 71.101562 269.6875 72.074219 270.035156 73.0625 270.339844 C 74.050781 270.640625 75.050781 270.894531 76.066406 271.097656 C 77.078125 271.300781 78.101562 271.453125 79.128906 271.558594 C 80.15625 271.664062 81.1875 271.714844 82.222656 271.71875 L 113.804688 271.71875 L 113.804688 208.550781 C 113.808594 207.859375 113.875 207.175781 114.011719 206.5 C 114.148438 205.824219 114.347656 205.164062 114.613281 204.527344 C 114.878906 203.890625 115.203125 203.285156 115.589844 202.710938 C 115.972656 202.136719 116.410156 201.605469 116.898438 201.117188 C 117.386719 200.628906 117.917969 200.191406 118.492188 199.808594 C 119.066406 199.421875 119.671875 199.097656 120.308594 198.832031 C 120.945312 198.566406 121.605469 198.367188 122.28125 198.230469 C 122.957031 198.09375 123.640625 198.027344 124.332031 198.023438 L 250.667969 198.023438 C 251.355469 198.027344 252.042969 198.09375 252.71875 198.230469 C 253.394531 198.367188 254.054688 198.566406 254.691406 198.832031 C 255.328125 199.097656 255.933594 199.421875 256.507812 199.808594 C 257.082031 200.191406 257.613281 200.628906 258.101562 201.117188 C 258.589844 201.605469 259.027344 202.136719 259.410156 202.710938 C 259.792969 203.285156 260.121094 203.890625 260.386719 204.527344 C 260.648438 205.164062 260.851562 205.824219 260.988281 206.5 C 261.125 207.175781 261.191406 207.859375 261.195312 208.550781 L 261.195312 271.71875 L 292.777344 271.71875 C 293.8125 271.714844 294.84375 271.664062 295.871094 271.558594 C 296.898438 271.453125 297.917969 271.300781 298.933594 271.097656 C 299.945312 270.894531 300.945312 270.640625 301.9375 270.339844 C 302.925781 270.035156 303.894531 269.6875 304.851562 269.289062 C 305.804688 268.894531 306.738281 268.449219 307.648438 267.960938 C 308.558594 267.472656 309.445312 266.941406 310.304688 266.367188 C 311.160156 265.792969 311.992188 265.175781 312.789062 264.519531 C 313.589844 263.867188 314.351562 263.171875 315.082031 262.441406 C 315.816406 261.710938 316.507812 260.945312 317.164062 260.148438 C 317.820312 259.347656 318.433594 258.519531 319.011719 257.660156 C 319.585938 256.800781 320.117188 255.917969 320.605469 255.003906 C 321.09375 254.09375 321.535156 253.160156 321.933594 252.207031 C 322.328125 251.253906 322.679688 250.28125 322.980469 249.292969 C 323.28125 248.304688 323.535156 247.304688 323.738281 246.289062 C 323.941406 245.277344 324.097656 244.257812 324.199219 243.226562 C 324.304688 242.199219 324.359375 241.167969 324.363281 240.136719 L 324.363281 155.914062 C 324.363281 154.878906 324.3125 153.84375 324.214844 152.816406 C 324.113281 151.785156 323.960938 150.761719 323.761719 149.746094 C 323.5625 148.734375 323.308594 147.730469 323.011719 146.738281 C 322.710938 145.75 322.363281 144.777344 321.96875 143.820312 C 321.574219 142.863281 321.132812 141.929688 320.644531 141.015625 C 320.15625 140.101562 319.625 139.214844 319.050781 138.355469 C 318.476562 137.496094 317.863281 136.664062 317.207031 135.863281 C 316.550781 135.066406 315.855469 134.300781 315.125 133.566406 C 314.390625 132.835938 313.625 132.140625 312.824219 131.484375 C 312.027344 130.828125 311.195312 130.214844 310.335938 129.640625 C 309.472656 129.0625 308.585938 128.535156 307.675781 128.046875 C 306.761719 127.558594 305.828125 127.117188 304.871094 126.722656 C 303.914062 126.328125 302.941406 125.980469 301.949219 125.679688 C 300.960938 125.378906 299.957031 125.128906 298.941406 124.929688 C 297.925781 124.726562 296.90625 124.578125 295.875 124.476562 C 294.84375 124.378906 293.8125 124.328125 292.777344 124.328125 Z M 271.722656 176.96875 C 271.027344 176.976562 270.339844 176.914062 269.660156 176.785156 C 268.980469 176.65625 268.316406 176.460938 267.675781 176.199219 C 267.03125 175.9375 266.421875 175.613281 265.84375 175.230469 C 265.265625 174.847656 264.734375 174.410156 264.242188 173.917969 C 263.753906 173.429688 263.316406 172.894531 262.933594 172.316406 C 262.546875 171.738281 262.226562 171.128906 261.964844 170.488281 C 261.703125 169.84375 261.507812 169.183594 261.375 168.503906 C 261.246094 167.820312 261.1875 167.132812 261.195312 166.441406 C 261.195312 165.75 261.261719 165.066406 261.398438 164.386719 C 261.53125 163.707031 261.730469 163.050781 261.996094 162.410156 C 262.261719 161.773438 262.585938 161.167969 262.96875 160.589844 C 263.351562 160.015625 263.789062 159.484375 264.277344 158.996094 C 264.765625 158.507812 265.296875 158.070312 265.875 157.6875 C 266.449219 157.304688 267.054688 156.976562 267.691406 156.714844 C 268.332031 156.449219 268.992188 156.25 269.667969 156.113281 C 270.347656 155.980469 271.03125 155.914062 271.722656 155.914062 C 272.414062 155.914062 273.097656 155.980469 273.777344 156.113281 C 274.453125 156.25 275.113281 156.449219 275.75 156.714844 C 276.390625 156.976562 276.996094 157.304688 277.570312 157.6875 C 278.144531 158.070312 278.675781 158.507812 279.167969 158.996094 C 279.65625 159.484375 280.089844 160.015625 280.476562 160.589844 C 280.859375 161.167969 281.183594 161.773438 281.449219 162.410156 C 281.714844 163.050781 281.914062 163.707031 282.046875 164.386719 C 282.183594 165.066406 282.25 165.75 282.25 166.441406 C 282.25 167.132812 282.183594 167.816406 282.046875 168.496094 C 281.914062 169.171875 281.714844 169.832031 281.449219 170.46875 C 281.183594 171.109375 280.859375 171.714844 280.476562 172.289062 C 280.089844 172.863281 279.65625 173.394531 279.167969 173.882812 C 278.675781 174.375 278.144531 174.808594 277.570312 175.195312 C 276.996094 175.578125 276.390625 175.902344 275.75 176.167969 C 275.113281 176.429688 274.453125 176.632812 273.777344 176.765625 C 273.097656 176.902344 272.414062 176.96875 271.722656 176.96875 Z M 271.722656 176.96875 " fill-opacity="1" fill-rule="nonzero"/></g><g clip-path="url(#99948cb262)"><path fill="#dc5598" d="M 261.195312 71.691406 L 261.195312 113.800781 L 113.804688 113.800781 L 113.804688 71.691406 C 113.808594 71 113.875 70.316406 114.011719 69.636719 C 114.148438 68.960938 114.347656 68.304688 114.613281 67.664062 C 114.878906 67.027344 115.203125 66.421875 115.589844 65.847656 C 115.972656 65.273438 116.410156 64.742188 116.898438 64.253906 C 117.386719 63.765625 117.917969 63.328125 118.492188 62.945312 C 119.066406 62.5625 119.671875 62.238281 120.308594 61.972656 C 120.945312 61.707031 121.605469 61.503906 122.28125 61.371094 C 122.957031 61.234375 123.640625 61.164062 124.332031 61.160156 L 250.667969 61.160156 C 251.355469 61.164062 252.042969 61.234375 252.71875 61.371094 C 253.394531 61.503906 254.054688 61.707031 254.691406 61.972656 C 255.328125 62.238281 255.933594 62.5625 256.507812 62.945312 C 257.082031 63.328125 257.613281 63.765625 258.101562 64.253906 C 258.589844 64.742188 259.027344 65.273438 259.410156 65.847656 C 259.792969 66.421875 260.121094 67.027344 260.386719 67.664062 C 260.648438 68.304688 260.851562 68.960938 260.988281 69.636719 C 261.125 70.316406 261.191406 71 261.195312 71.691406 Z M 261.195312 71.691406 " fill-opacity="1" fill-rule="nonzero"/></g><g fill="#dc5598" fill-opacity="1"><g transform="translate(197.823272, 309.148531)"><g><path d="M 2.703125 0.203125 C 2.109375 0.203125 1.660156 0.03125 1.359375 -0.3125 C 1.066406 -0.664062 0.921875 -1.09375 0.921875 -1.59375 C 0.921875 -2.09375 1.070312 -2.515625 1.375 -2.859375 C 1.6875 -3.203125 2.125 -3.375 2.6875 -3.375 C 3.25 -3.375 3.691406 -3.226562 4.015625 -2.9375 C 4.347656 -2.644531 4.515625 -2.210938 4.515625 -1.640625 C 4.515625 -1.066406 4.359375 -0.613281 4.046875 -0.28125 C 3.742188 0.0390625 3.296875 0.203125 2.703125 0.203125 Z M 2.703125 0.203125 "/></g></g></g></svg>