<svg xmlns="http://www.w3.org/2000/svg" xmlns:xlink="http://www.w3.org/1999/xlink" width="500" zoomAndPan="magnify" viewBox="0 0 375 374.999991" height="500" preserveAspectRatio="xMidYMid meet" version="1.0"><defs><g/><clipPath id="df54193cb3"><path d="M 41 68.167969 L 337.5 68.167969 L 337.5 277.417969 L 41 277.417969 Z M 41 68.167969 " clip-rule="nonzero"/></clipPath></defs><g clip-path="url(#df54193cb3)"><path fill="#09d6bd" d="M 188.429688 128.539062 C 193.855469 128.539062 197.085938 128.765625 197.117188 128.769531 C 198.042969 128.835938 198.945312 128.515625 199.617188 127.886719 C 200.292969 127.261719 200.675781 126.378906 200.675781 125.457031 L 200.675781 68.265625 L 337.503906 161.296875 L 200.675781 254.324219 L 200.675781 197.433594 C 200.675781 196.484375 200.269531 195.582031 199.558594 194.953125 C 198.949219 194.410156 198.164062 194.117188 197.359375 194.117188 C 197.226562 194.117188 197.09375 194.125 196.960938 194.140625 C 195.75 194.285156 166.929688 197.859375 132.792969 210.863281 C 112.691406 218.523438 94.980469 227.871094 80.148438 238.652344 C 64.503906 250.027344 52.042969 263.035156 42.996094 277.410156 C 37.480469 233.347656 45.898438 198.269531 68.023438 173.140625 C 103.464844 132.882812 164.035156 128.539062 188.429688 128.539062 Z M 188.429688 128.539062 " fill-opacity="1" fill-rule="nonzero"/></g><g fill="#000000" fill-opacity="1"><g transform="translate(213.342281, 364.398082)"><g><path d="M 0.796875 -4.453125 L 0.796875 -4.921875 L 4.828125 -4.921875 L 4.828125 -4.453125 Z M 0.796875 -4.453125 "/></g></g></g></svg>