<svg xmlns="http://www.w3.org/2000/svg" xmlns:xlink="http://www.w3.org/1999/xlink" width="500" zoomAndPan="magnify" viewBox="0 0 375 374.999991" height="500" preserveAspectRatio="xMidYMid meet" version="1.0"><defs><g/><clipPath id="9c30d98fda"><path d="M 237 64.824219 L 319.023438 64.824219 L 319.023438 310.074219 L 237 310.074219 Z M 237 64.824219 " clip-rule="nonzero"/></clipPath><clipPath id="ecbfeaacbf"><path d="M 150 64.824219 L 161 64.824219 L 161 310.074219 L 150 310.074219 Z M 150 64.824219 " clip-rule="nonzero"/></clipPath><clipPath id="1f8bd4a5b2"><path d="M 73.773438 182 L 243 182 L 243 193 L 73.773438 193 Z M 73.773438 182 " clip-rule="nonzero"/></clipPath><clipPath id="6881560ebc"><path d="M 73.773438 64.824219 L 243 64.824219 L 243 310.074219 L 73.773438 310.074219 Z M 73.773438 64.824219 " clip-rule="nonzero"/></clipPath></defs><rect x="-37.5" width="450" fill="#ffffff" y="-37.499999" height="449.999989" fill-opacity="1"/><rect x="-37.5" width="450" fill="#ffffff" y="-37.499999" height="449.999989" fill-opacity="1"/><g clip-path="url(#9c30d98fda)"><path fill="#9090f1" d="M 237.335938 64.824219 L 303.785156 64.824219 C 312.25 64.824219 319.117188 71.691406 319.117188 80.15625 L 319.117188 294.832031 C 319.117188 303.296875 312.25 310.167969 303.785156 310.167969 L 237.335938 310.167969 Z M 237.335938 64.824219 " fill-opacity="1" fill-rule="nonzero"/></g><g clip-path="url(#ecbfeaacbf)"><path fill="#a6a6a6" d="M 155.554688 310.167969 C 152.734375 310.167969 150.445312 307.875 150.445312 305.054688 L 150.445312 69.933594 C 150.445312 67.113281 152.734375 64.824219 155.554688 64.824219 C 158.378906 64.824219 160.667969 67.113281 160.667969 69.933594 L 160.667969 305.054688 C 160.667969 307.875 158.378906 310.167969 155.554688 310.167969 Z M 155.554688 310.167969 " fill-opacity="1" fill-rule="nonzero"/></g><g clip-path="url(#1f8bd4a5b2)"><path fill="#a6a6a6" d="M 237.335938 192.605469 L 78.886719 192.605469 C 76.066406 192.605469 73.773438 190.316406 73.773438 187.496094 C 73.773438 184.671875 76.066406 182.382812 78.886719 182.382812 L 237.335938 182.382812 C 240.160156 182.382812 242.449219 184.671875 242.449219 187.496094 C 242.449219 190.316406 240.160156 192.605469 237.335938 192.605469 Z M 237.335938 192.605469 " fill-opacity="1" fill-rule="nonzero"/></g><g clip-path="url(#6881560ebc)"><path fill="#a6a6a6" d="M 242.449219 310.167969 L 89.109375 310.167969 C 80.65625 310.167969 73.773438 303.285156 73.773438 294.832031 L 73.773438 80.15625 C 73.773438 71.703125 80.65625 64.824219 89.109375 64.824219 L 242.449219 64.824219 Z M 89.109375 75.046875 C 86.296875 75.046875 83.996094 77.335938 83.996094 80.15625 L 83.996094 294.832031 C 83.996094 297.652344 86.296875 299.945312 89.109375 299.945312 L 232.226562 299.945312 L 232.226562 75.046875 Z M 89.109375 75.046875 " fill-opacity="1" fill-rule="nonzero"/></g><g fill="#43dcbf" fill-opacity="1"><g transform="translate(223.26418, 154.597593)"><g><path d="M 2.09375 0.15625 C 1.632812 0.15625 1.289062 0.0195312 1.0625 -0.25 C 0.832031 -0.519531 0.71875 -0.847656 0.71875 -1.234375 C 0.71875 -1.628906 0.835938 -1.957031 1.078125 -2.21875 C 1.316406 -2.488281 1.65625 -2.625 2.09375 -2.625 C 2.53125 -2.625 2.875 -2.507812 3.125 -2.28125 C 3.382812 -2.0625 3.515625 -1.726562 3.515625 -1.28125 C 3.515625 -0.832031 3.394531 -0.476562 3.15625 -0.21875 C 2.914062 0.03125 2.5625 0.15625 2.09375 0.15625 Z M 2.09375 0.15625 "/></g></g></g><g fill="#9090f1" fill-opacity="1"><g transform="translate(271.693052, 188.459359)"><g><path d="M 2.09375 0.15625 C 1.632812 0.15625 1.289062 0.0195312 1.0625 -0.25 C 0.832031 -0.519531 0.71875 -0.847656 0.71875 -1.234375 C 0.71875 -1.628906 0.835938 -1.957031 1.078125 -2.21875 C 1.316406 -2.488281 1.65625 -2.625 2.09375 -2.625 C 2.53125 -2.625 2.875 -2.507812 3.125 -2.28125 C 3.382812 -2.0625 3.515625 -1.726562 3.515625 -1.28125 C 3.515625 -0.832031 3.394531 -0.476562 3.15625 -0.21875 C 2.914062 0.03125 2.5625 0.15625 2.09375 0.15625 Z M 2.09375 0.15625 "/></g></g></g></svg>