<svg width="24" height="24" viewBox="0 0 24 24" fill="none" xmlns="http://www.w3.org/2000/svg"><path d="M5.55 3.051a2.694 2.694 0 0 0-2.351 4.012c.593 1.222 1.572 2.178 2.365 2.815a11.86 11.86 0 0 0 1.37.947 6 6 0 0 0 .092.053l.027.015.008.004.003.002h.002a.749.749 0 0 0 .71 0h.001l.003-.002.008-.004.026-.015a9.301 9.301 0 0 0 .408-.246c.264-.168.625-.414 1.023-.732.777-.622 1.738-1.553 2.34-2.743a2.694 2.694 0 0 0-4.166-3.35 2.684 2.684 0 0 0-1.87-.756ZM15.922 3.58a1.027 1.027 0 0 1 1.776 0l3.307 5.694a1.026 1.026 0 0 1-.888 1.542h-6.614a1.026 1.026 0 0 1-.887-1.542l3.306-5.694ZM16.81 20.949a4.213 4.213 0 1 0 0-8.425 4.213 4.213 0 0 0 0 8.425ZM3.568 13.654a.77.77 0 0 1 .77-.77h6.14a.77.77 0 0 1 .77.77v6.294c0 .34-.276.616-.616.616H4.338a.77.77 0 0 1-.77-.77v-6.14Z" fill="currentColor"></path></svg>