<svg xmlns="http://www.w3.org/2000/svg" xmlns:xlink="http://www.w3.org/1999/xlink" width="500" zoomAndPan="magnify" viewBox="0 0 375 374.999991" height="500" preserveAspectRatio="xMidYMid meet" version="1.0"><defs><g/><clipPath id="e13b549d29"><path d="M 37.5 69.074219 L 333 69.074219 L 333 277.574219 L 37.5 277.574219 Z M 37.5 69.074219 " clip-rule="nonzero"/></clipPath></defs><g clip-path="url(#e13b549d29)"><path fill="#09d6bd" d="M 185.925781 129.175781 C 180.519531 129.175781 177.304688 129.40625 177.273438 129.40625 C 176.351562 129.476562 175.453125 129.15625 174.785156 128.53125 C 174.109375 127.90625 173.730469 127.027344 173.730469 126.109375 L 173.730469 69.167969 L 37.496094 161.792969 L 173.730469 254.417969 L 173.730469 197.777344 C 173.730469 196.828125 174.132812 195.929688 174.839844 195.304688 C 175.449219 194.765625 176.230469 194.46875 177.035156 194.46875 C 177.164062 194.46875 177.296875 194.480469 177.429688 194.496094 C 178.632812 194.640625 207.332031 198.199219 241.320312 211.148438 C 261.335938 218.769531 278.96875 228.078125 293.734375 238.8125 C 309.3125 250.140625 321.71875 263.089844 330.726562 277.40625 C 336.21875 233.535156 327.835938 198.605469 305.808594 173.585938 C 270.519531 133.503906 210.214844 129.175781 185.925781 129.175781 Z M 185.925781 129.175781 " fill-opacity="1" fill-rule="nonzero"/></g><g fill="#000000" fill-opacity="1"><g transform="translate(213.342281, 364.398082)"><g><path d="M 0.796875 -4.453125 L 0.796875 -4.921875 L 4.828125 -4.921875 L 4.828125 -4.453125 Z M 0.796875 -4.453125 "/></g></g></g></svg>