<svg xmlns="http://www.w3.org/2000/svg" xmlns:xlink="http://www.w3.org/1999/xlink" width="500" zoomAndPan="magnify" viewBox="0 0 375 374.999991" height="500" preserveAspectRatio="xMidYMid meet" version="1.0"><defs><g/></defs><path fill="#ffbd59" d="M 73.445312 272.90625 L 102.574219 243.773438 C 103.664062 242.683594 104.839844 241.683594 106.09375 240.78125 C 107.34375 239.878906 108.660156 239.082031 110.042969 238.390625 C 111.421875 237.699219 112.847656 237.121094 114.320312 236.65625 C 115.792969 236.191406 117.292969 235.847656 118.820312 235.625 C 120.351562 235.398438 121.886719 235.296875 123.429688 235.320312 C 124.972656 235.339844 126.507812 235.484375 128.027344 235.75 C 129.546875 236.015625 131.039062 236.402344 132.496094 236.90625 C 133.957031 237.410156 135.367188 238.027344 136.726562 238.757812 L 155.167969 220.320312 C 153.9375 218.839844 152.757812 217.324219 151.628906 215.773438 C 150.496094 214.21875 149.414062 212.632812 148.386719 211.011719 C 147.355469 209.390625 146.375 207.734375 145.449219 206.050781 C 144.523438 204.367188 143.652344 202.65625 142.835938 200.917969 C 142.019531 199.179688 141.257812 197.414062 140.554688 195.625 C 139.851562 193.839844 139.203125 192.03125 138.613281 190.203125 C 138.023438 188.375 137.492188 186.527344 137.019531 184.664062 C 136.546875 182.804688 136.132812 180.925781 135.78125 179.039062 C 135.425781 177.148438 135.132812 175.25 134.902344 173.34375 C 134.667969 171.4375 134.496094 169.523438 134.386719 167.605469 C 134.273438 165.6875 134.222656 163.765625 134.234375 161.84375 C 134.246094 159.925781 134.316406 158.003906 134.449219 156.089844 C 134.582031 154.171875 134.777344 152.261719 135.03125 150.355469 C 135.285156 148.449219 135.597656 146.554688 135.972656 144.671875 C 136.347656 142.785156 136.78125 140.917969 137.277344 139.058594 C 137.769531 137.203125 138.320312 135.363281 138.933594 133.539062 C 139.542969 131.71875 140.210938 129.917969 140.933594 128.136719 C 141.660156 126.359375 142.441406 124.605469 143.277344 122.875 C 144.113281 121.144531 145.003906 119.441406 145.949219 117.769531 C 146.894531 116.09375 147.890625 114.453125 148.9375 112.84375 C 149.988281 111.234375 151.085938 109.660156 152.234375 108.117188 C 153.382812 106.578125 154.582031 105.074219 155.824219 103.613281 C 157.070312 102.148438 158.359375 100.722656 159.695312 99.34375 C 161.027344 97.960938 162.40625 96.621094 163.828125 95.328125 C 165.246094 94.03125 166.707031 92.785156 168.207031 91.582031 C 169.703125 90.378906 171.242188 89.226562 172.8125 88.121094 C 174.386719 87.019531 175.992188 85.964844 177.632812 84.960938 C 179.269531 83.960938 180.941406 83.011719 182.640625 82.113281 C 184.339844 81.21875 186.066406 80.378906 187.820312 79.589844 C 189.574219 78.804688 191.347656 78.074219 193.148438 77.402344 C 194.949219 76.726562 196.769531 76.113281 198.605469 75.554688 C 200.445312 74.996094 202.300781 74.496094 204.171875 74.058594 C 206.039062 73.617188 207.921875 73.238281 209.816406 72.917969 C 211.710938 72.597656 213.617188 72.335938 215.527344 72.136719 C 217.4375 71.9375 219.351562 71.796875 221.273438 71.722656 C 223.191406 71.644531 225.113281 71.625 227.035156 71.671875 C 228.957031 71.714844 230.875 71.820312 232.789062 71.988281 C 234.703125 72.152344 236.609375 72.378906 238.507812 72.667969 C 240.410156 72.953125 242.296875 73.300781 244.175781 73.710938 C 246.054688 74.117188 247.917969 74.582031 249.765625 75.109375 C 251.613281 75.632812 253.441406 76.21875 255.253906 76.859375 C 257.066406 77.503906 258.855469 78.203125 260.621094 78.957031 C 262.386719 79.714844 264.128906 80.523438 265.84375 81.390625 C 267.558594 82.257812 269.246094 83.175781 270.902344 84.152344 C 272.558594 85.125 274.183594 86.148438 275.773438 87.226562 C 277.363281 88.304688 278.921875 89.429688 280.441406 90.605469 C 281.960938 91.78125 283.441406 93.003906 284.882812 94.273438 C 286.328125 95.542969 287.726562 96.855469 289.085938 98.214844 C 290.445312 99.574219 291.757812 100.972656 293.027344 102.417969 C 294.296875 103.859375 295.519531 105.339844 296.695312 106.859375 C 297.871094 108.378906 299 109.9375 300.074219 111.527344 C 301.152344 113.117188 302.175781 114.742188 303.148438 116.398438 C 304.125 118.054688 305.042969 119.742188 305.910156 121.457031 C 306.777344 123.171875 307.585938 124.914062 308.34375 126.679688 C 309.097656 128.445312 309.796875 130.234375 310.441406 132.046875 C 311.082031 133.859375 311.667969 135.6875 312.191406 137.535156 C 312.71875 139.382812 313.183594 141.246094 313.59375 143.125 C 314 145.003906 314.347656 146.890625 314.632812 148.792969 C 314.921875 150.691406 315.148438 152.597656 315.3125 154.511719 C 315.480469 156.425781 315.585938 158.34375 315.628906 160.265625 C 315.675781 162.1875 315.65625 164.109375 315.578125 166.027344 C 315.503906 167.949219 315.363281 169.863281 315.164062 171.773438 C 314.964844 173.683594 314.703125 175.589844 314.382812 177.484375 C 314.0625 179.378906 313.683594 181.261719 313.242188 183.128906 C 312.804688 185 312.304688 186.855469 311.746094 188.695312 C 311.1875 190.535156 310.574219 192.351562 309.898438 194.152344 C 309.226562 195.953125 308.496094 197.726562 307.710938 199.480469 C 306.921875 201.234375 306.082031 202.960938 305.1875 204.660156 C 304.289062 206.359375 303.339844 208.03125 302.339844 209.671875 C 301.335938 211.308594 300.28125 212.914062 299.179688 214.488281 C 298.074219 216.058594 296.921875 217.597656 295.71875 219.09375 C 294.515625 220.59375 293.269531 222.054688 291.972656 223.472656 C 290.679688 224.894531 289.339844 226.273438 287.957031 227.605469 C 286.578125 228.941406 285.152344 230.230469 283.6875 231.476562 C 282.226562 232.71875 280.722656 233.917969 279.183594 235.066406 C 277.640625 236.214844 276.066406 237.3125 274.457031 238.363281 C 272.847656 239.410156 271.207031 240.40625 269.53125 241.351562 C 267.859375 242.296875 266.15625 243.1875 264.425781 244.023438 C 262.695312 244.859375 260.941406 245.640625 259.164062 246.367188 C 257.382812 247.089844 255.582031 247.757812 253.761719 248.367188 C 251.9375 248.980469 250.097656 249.53125 248.242188 250.023438 C 246.382812 250.519531 244.515625 250.953125 242.628906 251.328125 C 240.746094 251.703125 238.851562 252.015625 236.945312 252.269531 C 235.039062 252.523438 233.128906 252.71875 231.210938 252.851562 C 229.296875 252.984375 227.375 253.054688 225.453125 253.066406 C 223.535156 253.078125 221.613281 253.027344 219.695312 252.914062 C 217.777344 252.804688 215.863281 252.632812 213.957031 252.398438 C 212.050781 252.167969 210.152344 251.875 208.261719 251.519531 C 206.375 251.167969 204.496094 250.753906 202.636719 250.28125 C 200.773438 249.808594 198.925781 249.277344 197.097656 248.6875 C 195.269531 248.097656 193.460938 247.449219 191.675781 246.746094 C 189.886719 246.042969 188.121094 245.28125 186.382812 244.464844 C 184.644531 243.648438 182.933594 242.777344 181.25 241.851562 C 179.566406 240.925781 177.910156 239.945312 176.289062 238.914062 C 174.667969 237.886719 173.082031 236.804688 171.527344 235.671875 C 169.976562 234.542969 168.460938 233.363281 166.980469 232.132812 L 148.523438 250.566406 C 149.253906 251.925781 149.871094 253.335938 150.375 254.792969 C 150.882812 256.253906 151.265625 257.746094 151.53125 259.265625 C 151.800781 260.785156 151.941406 262.320312 151.964844 263.863281 C 151.984375 265.40625 151.882812 266.941406 151.660156 268.46875 C 151.4375 270 151.089844 271.5 150.628906 272.972656 C 150.164062 274.445312 149.585938 275.871094 148.894531 277.25 C 148.203125 278.632812 147.402344 279.949219 146.5 281.199219 C 145.597656 282.453125 144.601562 283.625 143.511719 284.71875 L 114.394531 313.835938 C 113.722656 314.507812 113.023438 315.144531 112.289062 315.742188 C 111.554688 316.34375 110.796875 316.90625 110.007812 317.433594 C 109.21875 317.960938 108.40625 318.445312 107.570312 318.894531 C 106.734375 319.339844 105.878906 319.746094 105.003906 320.105469 C 104.128906 320.46875 103.234375 320.789062 102.328125 321.0625 C 101.421875 321.335938 100.503906 321.566406 99.574219 321.75 C 98.644531 321.9375 97.707031 322.074219 96.765625 322.167969 C 95.820312 322.261719 94.875 322.304688 93.929688 322.304688 C 92.980469 322.304688 92.035156 322.257812 91.089844 322.167969 C 90.148438 322.074219 89.210938 321.933594 88.28125 321.75 C 87.351562 321.5625 86.433594 321.332031 85.527344 321.058594 C 84.621094 320.78125 83.730469 320.464844 82.851562 320.101562 C 81.976562 319.738281 81.121094 319.332031 80.285156 318.886719 C 79.449219 318.441406 78.636719 317.953125 77.851562 317.425781 C 77.0625 316.898438 76.300781 316.335938 75.570312 315.734375 C 74.835938 315.132812 74.136719 314.496094 73.464844 313.828125 C 72.792969 313.15625 72.160156 312.457031 71.558594 311.722656 C 70.957031 310.992188 70.390625 310.230469 69.867188 309.441406 C 69.339844 308.652344 68.851562 307.84375 68.40625 307.007812 C 67.957031 306.171875 67.554688 305.316406 67.191406 304.4375 C 66.828125 303.5625 66.507812 302.671875 66.234375 301.765625 C 65.957031 300.859375 65.730469 299.941406 65.542969 299.011719 C 65.359375 298.082031 65.21875 297.144531 65.125 296.203125 C 65.03125 295.257812 64.988281 294.3125 64.984375 293.363281 C 64.984375 292.417969 65.03125 291.472656 65.125 290.527344 C 65.21875 289.585938 65.355469 288.648438 65.539062 287.71875 C 65.726562 286.789062 65.953125 285.871094 66.230469 284.964844 C 66.503906 284.054688 66.824219 283.164062 67.1875 282.289062 C 67.546875 281.414062 67.953125 280.558594 68.398438 279.722656 C 68.84375 278.886719 69.332031 278.074219 69.859375 277.285156 C 70.382812 276.496094 70.949219 275.734375 71.550781 275.003906 C 72.148438 274.269531 72.785156 273.566406 73.453125 272.898438 Z M 172.613281 214.671875 C 173.46875 215.527344 174.34375 216.363281 175.242188 217.175781 C 176.140625 217.988281 177.058594 218.78125 177.992188 219.550781 C 178.929688 220.316406 179.882812 221.0625 180.855469 221.785156 C 181.828125 222.503906 182.820312 223.203125 183.824219 223.875 C 184.832031 224.546875 185.855469 225.195312 186.894531 225.820312 C 187.933594 226.441406 188.988281 227.039062 190.054688 227.609375 C 191.121094 228.179688 192.203125 228.722656 193.300781 229.242188 C 194.394531 229.761719 195.5 230.25 196.621094 230.714844 C 197.738281 231.179688 198.867188 231.613281 200.007812 232.023438 C 201.148438 232.429688 202.296875 232.808594 203.457031 233.160156 C 204.617188 233.511719 205.78125 233.835938 206.957031 234.128906 C 208.132812 234.425781 209.3125 234.691406 210.5 234.925781 C 211.691406 235.164062 212.882812 235.371094 214.082031 235.546875 C 215.277344 235.726562 216.480469 235.875 217.683594 235.992188 C 218.890625 236.109375 220.097656 236.199219 221.308594 236.257812 C 222.515625 236.320312 223.726562 236.347656 224.9375 236.347656 C 226.148438 236.347656 227.359375 236.320312 228.570312 236.257812 C 229.78125 236.199219 230.988281 236.113281 232.191406 235.992188 C 233.398438 235.875 234.597656 235.726562 235.796875 235.546875 C 236.996094 235.371094 238.1875 235.164062 239.375 234.925781 C 240.5625 234.691406 241.746094 234.425781 242.917969 234.132812 C 244.09375 233.835938 245.261719 233.515625 246.421875 233.164062 C 247.578125 232.8125 248.730469 232.433594 249.871094 232.023438 C 251.011719 231.617188 252.140625 231.179688 253.257812 230.714844 C 254.378906 230.253906 255.484375 229.761719 256.578125 229.246094 C 257.675781 228.726562 258.753906 228.183594 259.824219 227.613281 C 260.890625 227.039062 261.945312 226.445312 262.984375 225.820312 C 264.023438 225.199219 265.046875 224.550781 266.050781 223.878906 C 267.058594 223.207031 268.050781 222.507812 269.023438 221.785156 C 269.996094 221.066406 270.949219 220.320312 271.886719 219.550781 C 272.820312 218.785156 273.738281 217.992188 274.636719 217.179688 C 275.535156 216.367188 276.410156 215.53125 277.265625 214.675781 C 278.125 213.820312 278.957031 212.941406 279.769531 212.046875 C 280.585938 211.148438 281.375 210.230469 282.144531 209.292969 C 282.914062 208.359375 283.65625 207.402344 284.378906 206.429688 C 285.101562 205.457031 285.796875 204.46875 286.46875 203.460938 C 287.144531 202.453125 287.789062 201.433594 288.414062 200.394531 C 289.035156 199.355469 289.632812 198.300781 290.203125 197.234375 C 290.773438 196.164062 291.320312 195.082031 291.835938 193.988281 C 292.355469 192.894531 292.84375 191.785156 293.308594 190.667969 C 293.773438 189.546875 294.207031 188.417969 294.617188 187.277344 C 295.023438 186.136719 295.402344 184.988281 295.753906 183.828125 C 296.105469 182.671875 296.429688 181.503906 296.722656 180.328125 C 297.019531 179.15625 297.285156 177.972656 297.519531 176.785156 C 297.757812 175.597656 297.964844 174.40625 298.140625 173.207031 C 298.320312 172.007812 298.46875 170.808594 298.585938 169.601562 C 298.703125 168.398438 298.792969 167.1875 298.851562 165.980469 C 298.914062 164.769531 298.941406 163.558594 298.941406 162.347656 C 298.941406 161.136719 298.914062 159.925781 298.851562 158.71875 C 298.792969 157.507812 298.703125 156.300781 298.585938 155.09375 C 298.46875 153.890625 298.320312 152.6875 298.140625 151.488281 C 297.964844 150.292969 297.757812 149.097656 297.519531 147.910156 C 297.285156 146.722656 297.019531 145.542969 296.722656 144.367188 C 296.429688 143.191406 296.105469 142.027344 295.753906 140.867188 C 295.402344 139.707031 295.023438 138.558594 294.617188 137.417969 C 294.207031 136.277344 293.773438 135.148438 293.308594 134.027344 C 292.84375 132.910156 292.355469 131.804688 291.835938 130.707031 C 291.320312 129.613281 290.773438 128.53125 290.203125 127.464844 C 289.632812 126.394531 289.035156 125.34375 288.414062 124.304688 C 287.789062 123.265625 287.144531 122.242188 286.46875 121.234375 C 285.796875 120.226562 285.101562 119.238281 284.378906 118.265625 C 283.65625 117.292969 282.914062 116.339844 282.144531 115.402344 C 281.375 114.464844 280.585938 113.550781 279.769531 112.652344 C 278.957031 111.753906 278.125 110.878906 277.265625 110.019531 C 276.410156 109.164062 275.535156 108.328125 274.636719 107.515625 C 273.738281 106.703125 272.820312 105.914062 271.886719 105.144531 C 270.949219 104.375 269.996094 103.632812 269.023438 102.910156 C 268.050781 102.1875 267.058594 101.492188 266.050781 100.816406 C 265.046875 100.144531 264.023438 99.496094 262.984375 98.875 C 261.945312 98.253906 260.890625 97.65625 259.824219 97.085938 C 258.753906 96.515625 257.675781 95.96875 256.578125 95.453125 C 255.484375 94.933594 254.378906 94.445312 253.257812 93.980469 C 252.140625 93.515625 251.011719 93.082031 249.871094 92.671875 C 248.730469 92.265625 247.578125 91.886719 246.421875 91.535156 C 245.261719 91.183594 244.09375 90.859375 242.917969 90.566406 C 241.746094 90.269531 240.5625 90.003906 239.375 89.769531 C 238.1875 89.53125 236.996094 89.324219 235.796875 89.148438 C 234.597656 88.972656 233.398438 88.824219 232.191406 88.703125 C 230.988281 88.585938 229.78125 88.496094 228.570312 88.4375 C 227.359375 88.378906 226.148438 88.347656 224.9375 88.347656 C 223.726562 88.347656 222.515625 88.378906 221.308594 88.4375 C 220.097656 88.496094 218.890625 88.585938 217.683594 88.703125 C 216.480469 88.824219 215.277344 88.972656 214.082031 89.148438 C 212.882812 89.328125 211.691406 89.535156 210.5 89.769531 C 209.3125 90.007812 208.132812 90.273438 206.957031 90.566406 C 205.78125 90.859375 204.617188 91.183594 203.457031 91.535156 C 202.296875 91.886719 201.148438 92.265625 200.007812 92.675781 C 198.867188 93.082031 197.738281 93.519531 196.621094 93.980469 C 195.5 94.445312 194.394531 94.9375 193.300781 95.453125 C 192.203125 95.972656 191.121094 96.515625 190.054688 97.085938 C 188.988281 97.660156 187.933594 98.253906 186.894531 98.878906 C 185.855469 99.5 184.832031 100.148438 183.824219 100.820312 C 182.820312 101.496094 181.828125 102.191406 180.855469 102.914062 C 179.882812 103.632812 178.929688 104.378906 177.992188 105.148438 C 177.058594 105.917969 176.140625 106.707031 175.242188 107.519531 C 174.34375 108.332031 173.46875 109.167969 172.613281 110.023438 C 171.757812 110.882812 170.921875 111.757812 170.109375 112.65625 C 169.296875 113.554688 168.507812 114.472656 167.738281 115.40625 C 166.972656 116.34375 166.226562 117.296875 165.507812 118.269531 C 164.785156 119.242188 164.089844 120.234375 163.417969 121.242188 C 162.742188 122.246094 162.097656 123.269531 161.472656 124.308594 C 160.851562 125.347656 160.257812 126.402344 159.6875 127.46875 C 159.117188 128.539062 158.570312 129.617188 158.054688 130.714844 C 157.535156 131.808594 157.046875 132.914062 156.582031 134.035156 C 156.121094 135.152344 155.683594 136.28125 155.277344 137.421875 C 154.871094 138.5625 154.488281 139.710938 154.140625 140.871094 C 153.789062 142.03125 153.464844 143.195312 153.171875 144.371094 C 152.875 145.546875 152.613281 146.726562 152.375 147.914062 C 152.140625 149.101562 151.933594 150.292969 151.753906 151.492188 C 151.578125 152.691406 151.429688 153.890625 151.3125 155.097656 C 151.191406 156.300781 151.101562 157.507812 151.042969 158.71875 C 150.984375 159.925781 150.953125 161.136719 150.953125 162.347656 C 150.953125 163.558594 150.984375 164.769531 151.042969 165.980469 C 151.101562 167.1875 151.191406 168.394531 151.3125 169.601562 C 151.429688 170.804688 151.578125 172.007812 151.753906 173.203125 C 151.933594 174.402344 152.140625 175.59375 152.375 176.78125 C 152.613281 177.96875 152.875 179.152344 153.171875 180.324219 C 153.464844 181.5 153.789062 182.667969 154.140625 183.824219 C 154.488281 184.984375 154.871094 186.132812 155.277344 187.273438 C 155.683594 188.414062 156.121094 189.542969 156.582031 190.664062 C 157.046875 191.78125 157.535156 192.886719 158.054688 193.984375 C 158.570312 195.078125 159.113281 196.160156 159.6875 197.226562 C 160.257812 198.296875 160.851562 199.347656 161.472656 200.386719 C 162.097656 201.425781 162.742188 202.449219 163.417969 203.457031 C 164.089844 204.464844 164.785156 205.453125 165.507812 206.425781 C 166.226562 207.398438 166.972656 208.351562 167.738281 209.289062 C 168.507812 210.226562 169.296875 211.144531 170.109375 212.039062 C 170.921875 212.9375 171.757812 213.816406 172.613281 214.671875 Z M 85.261719 302.023438 C 85.828125 302.589844 86.445312 303.097656 87.113281 303.542969 C 87.78125 303.992188 88.488281 304.367188 89.230469 304.675781 C 89.972656 304.980469 90.738281 305.214844 91.527344 305.371094 C 92.3125 305.527344 93.109375 305.605469 93.914062 305.605469 C 94.714844 305.605469 95.511719 305.527344 96.300781 305.371094 C 97.085938 305.214844 97.851562 304.980469 98.59375 304.675781 C 99.335938 304.367188 100.042969 303.992188 100.710938 303.542969 C 101.378906 303.097656 101.996094 302.589844 102.5625 302.023438 L 131.679688 272.90625 C 132.25 272.339844 132.757812 271.71875 133.203125 271.050781 C 133.648438 270.382812 134.027344 269.679688 134.332031 268.9375 C 134.640625 268.195312 134.871094 267.429688 135.03125 266.640625 C 135.1875 265.855469 135.265625 265.058594 135.265625 264.253906 C 135.265625 263.449219 135.1875 262.65625 135.03125 261.867188 C 134.871094 261.078125 134.640625 260.316406 134.332031 259.574219 C 134.027344 258.828125 133.648438 258.125 133.203125 257.457031 C 132.757812 256.789062 132.25 256.171875 131.679688 255.601562 C 131.113281 255.035156 130.496094 254.527344 129.828125 254.082031 C 129.160156 253.636719 128.453125 253.257812 127.710938 252.949219 C 126.96875 252.644531 126.203125 252.410156 125.417969 252.253906 C 124.628906 252.097656 123.832031 252.019531 123.03125 252.019531 C 122.226562 252.019531 121.429688 252.097656 120.644531 252.253906 C 119.855469 252.410156 119.089844 252.644531 118.347656 252.949219 C 117.605469 253.257812 116.898438 253.636719 116.230469 254.082031 C 115.5625 254.527344 114.945312 255.035156 114.378906 255.601562 L 85.261719 284.710938 C 84.691406 285.28125 84.183594 285.898438 83.738281 286.566406 C 83.292969 287.234375 82.914062 287.941406 82.605469 288.683594 C 82.300781 289.425781 82.066406 290.191406 81.910156 290.980469 C 81.753906 291.769531 81.675781 292.5625 81.675781 293.367188 C 81.675781 294.171875 81.753906 294.96875 81.910156 295.753906 C 82.066406 296.542969 82.300781 297.308594 82.605469 298.050781 C 82.914062 298.792969 83.292969 299.5 83.738281 300.167969 C 84.183594 300.835938 84.691406 301.453125 85.261719 302.023438 Z M 85.261719 302.023438 " fill-opacity="1" fill-rule="evenodd"/><path fill="#ffbd59" d="M 204.34375 153.996094 L 245.519531 153.996094 C 246.066406 153.996094 246.609375 154.050781 247.148438 154.15625 C 247.6875 154.265625 248.207031 154.421875 248.714844 154.632812 C 249.222656 154.84375 249.703125 155.101562 250.160156 155.40625 C 250.617188 155.710938 251.039062 156.058594 251.425781 156.445312 C 251.8125 156.832031 252.160156 157.253906 252.464844 157.710938 C 252.769531 158.167969 253.027344 158.648438 253.238281 159.15625 C 253.449219 159.660156 253.605469 160.183594 253.710938 160.722656 C 253.820312 161.261719 253.875 161.804688 253.875 162.351562 C 253.875 162.902344 253.820312 163.445312 253.710938 163.984375 C 253.605469 164.519531 253.449219 165.042969 253.238281 165.550781 C 253.027344 166.054688 252.769531 166.539062 252.464844 166.996094 C 252.160156 167.449219 251.8125 167.871094 251.425781 168.261719 C 251.039062 168.648438 250.617188 168.996094 250.160156 169.300781 C 249.703125 169.605469 249.222656 169.863281 248.714844 170.070312 C 248.207031 170.28125 247.6875 170.441406 247.148438 170.546875 C 246.609375 170.652344 246.066406 170.707031 245.519531 170.707031 L 204.34375 170.707031 C 203.796875 170.707031 203.253906 170.652344 202.714844 170.546875 C 202.175781 170.441406 201.65625 170.28125 201.148438 170.070312 C 200.640625 169.863281 200.160156 169.605469 199.703125 169.300781 C 199.246094 168.996094 198.824219 168.648438 198.4375 168.261719 C 198.050781 167.871094 197.703125 167.449219 197.398438 166.996094 C 197.09375 166.539062 196.835938 166.054688 196.625 165.550781 C 196.414062 165.042969 196.257812 164.519531 196.148438 163.984375 C 196.042969 163.445312 195.988281 162.902344 195.988281 162.351562 C 195.988281 161.804688 196.042969 161.261719 196.148438 160.722656 C 196.257812 160.183594 196.414062 159.660156 196.625 159.15625 C 196.835938 158.648438 197.09375 158.167969 197.398438 157.710938 C 197.703125 157.253906 198.050781 156.832031 198.4375 156.445312 C 198.824219 156.058594 199.246094 155.710938 199.703125 155.40625 C 200.160156 155.101562 200.640625 154.84375 201.148438 154.632812 C 201.65625 154.421875 202.175781 154.265625 202.714844 154.15625 C 203.253906 154.050781 203.796875 153.996094 204.34375 153.996094 Z M 204.34375 153.996094 " fill-opacity="1" fill-rule="evenodd"/><g fill="#ffbd59" fill-opacity="1"><g transform="translate(187.499992, 244.46972)"><g><path d="M 2.09375 0.15625 C 1.632812 0.15625 1.289062 0.0195312 1.0625 -0.25 C 0.832031 -0.519531 0.71875 -0.847656 0.71875 -1.234375 C 0.71875 -1.628906 0.835938 -1.957031 1.078125 -2.21875 C 1.316406 -2.488281 1.65625 -2.625 2.09375 -2.625 C 2.53125 -2.625 2.875 -2.507812 3.125 -2.28125 C 3.382812 -2.0625 3.515625 -1.726562 3.515625 -1.28125 C 3.515625 -0.832031 3.394531 -0.476562 3.15625 -0.21875 C 2.914062 0.03125 2.5625 0.15625 2.09375 0.15625 Z M 2.09375 0.15625 "/></g></g></g></svg>