<svg xmlns="http://www.w3.org/2000/svg" xmlns:xlink="http://www.w3.org/1999/xlink" width="500" zoomAndPan="magnify" viewBox="0 0 375 374.999991" height="500" preserveAspectRatio="xMidYMid meet" version="1.0"><defs><g/></defs><path fill="#ff914d" d="M 199.785156 154.265625 L 172.472656 154.265625 L 172.472656 126.949219 C 172.472656 126.351562 172.414062 125.761719 172.296875 125.175781 C 172.179688 124.585938 172.007812 124.019531 171.78125 123.464844 C 171.550781 122.914062 171.269531 122.390625 170.9375 121.890625 C 170.605469 121.394531 170.230469 120.933594 169.804688 120.511719 C 169.382812 120.089844 168.921875 119.710938 168.425781 119.378906 C 167.929688 119.046875 167.40625 118.765625 166.851562 118.539062 C 166.300781 118.308594 165.730469 118.136719 165.144531 118.019531 C 164.558594 117.902344 163.964844 117.84375 163.367188 117.84375 C 162.769531 117.84375 162.179688 117.902344 161.59375 118.019531 C 161.007812 118.136719 160.4375 118.308594 159.882812 118.539062 C 159.332031 118.765625 158.808594 119.046875 158.308594 119.378906 C 157.8125 119.710938 157.351562 120.089844 156.929688 120.511719 C 156.507812 120.933594 156.128906 121.394531 155.796875 121.890625 C 155.464844 122.390625 155.1875 122.914062 154.957031 123.464844 C 154.726562 124.019531 154.554688 124.585938 154.4375 125.175781 C 154.320312 125.761719 154.265625 126.351562 154.265625 126.949219 L 154.265625 154.265625 L 126.949219 154.265625 C 126.351562 154.265625 125.761719 154.320312 125.175781 154.4375 C 124.585938 154.554688 124.019531 154.726562 123.464844 154.957031 C 122.914062 155.1875 122.390625 155.464844 121.890625 155.796875 C 121.394531 156.128906 120.933594 156.507812 120.511719 156.929688 C 120.089844 157.351562 119.710938 157.8125 119.378906 158.308594 C 119.046875 158.808594 118.765625 159.332031 118.539062 159.882812 C 118.308594 160.4375 118.136719 161.007812 118.019531 161.59375 C 117.902344 162.179688 117.84375 162.769531 117.84375 163.367188 C 117.84375 163.964844 117.902344 164.558594 118.019531 165.144531 C 118.136719 165.730469 118.308594 166.300781 118.539062 166.851562 C 118.765625 167.40625 119.046875 167.929688 119.378906 168.425781 C 119.710938 168.921875 120.089844 169.382812 120.511719 169.804688 C 120.933594 170.230469 121.394531 170.605469 121.890625 170.9375 C 122.390625 171.269531 122.914062 171.550781 123.464844 171.78125 C 124.019531 172.007812 124.585938 172.179688 125.175781 172.296875 C 125.761719 172.414062 126.351562 172.472656 126.949219 172.472656 L 154.265625 172.472656 L 154.265625 199.785156 C 154.265625 200.382812 154.320312 200.976562 154.4375 201.5625 C 154.554688 202.148438 154.726562 202.71875 154.957031 203.269531 C 155.1875 203.824219 155.464844 204.347656 155.796875 204.84375 C 156.128906 205.34375 156.507812 205.800781 156.929688 206.226562 C 157.351562 206.648438 157.8125 207.023438 158.308594 207.355469 C 158.808594 207.6875 159.332031 207.96875 159.882812 208.199219 C 160.4375 208.425781 161.007812 208.601562 161.59375 208.714844 C 162.179688 208.832031 162.769531 208.890625 163.367188 208.890625 C 163.964844 208.890625 164.558594 208.832031 165.144531 208.714844 C 165.730469 208.601562 166.300781 208.425781 166.851562 208.199219 C 167.40625 207.96875 167.929688 207.6875 168.425781 207.355469 C 168.921875 207.023438 169.382812 206.648438 169.804688 206.226562 C 170.230469 205.800781 170.605469 205.34375 170.9375 204.84375 C 171.269531 204.347656 171.550781 203.824219 171.78125 203.269531 C 172.007812 202.71875 172.179688 202.148438 172.296875 201.5625 C 172.414062 200.976562 172.472656 200.382812 172.472656 199.785156 L 172.472656 172.472656 L 199.785156 172.472656 C 200.382812 172.472656 200.976562 172.414062 201.5625 172.296875 C 202.148438 172.179688 202.71875 172.007812 203.269531 171.78125 C 203.824219 171.550781 204.347656 171.269531 204.84375 170.9375 C 205.34375 170.605469 205.800781 170.230469 206.226562 169.804688 C 206.648438 169.382812 207.023438 168.921875 207.355469 168.425781 C 207.6875 167.929688 207.96875 167.40625 208.199219 166.851562 C 208.425781 166.300781 208.601562 165.730469 208.714844 165.144531 C 208.832031 164.558594 208.890625 163.964844 208.890625 163.367188 C 208.890625 162.769531 208.832031 162.179688 208.714844 161.59375 C 208.601562 161.007812 208.425781 160.4375 208.199219 159.882812 C 207.96875 159.332031 207.6875 158.808594 207.355469 158.308594 C 207.023438 157.8125 206.648438 157.351562 206.226562 156.929688 C 205.800781 156.507812 205.34375 156.128906 204.84375 155.796875 C 204.347656 155.464844 203.824219 155.1875 203.269531 154.957031 C 202.71875 154.726562 202.148438 154.554688 201.5625 154.4375 C 200.976562 154.320312 200.382812 154.265625 199.785156 154.265625 Z M 199.785156 154.265625 " fill-opacity="1" fill-rule="nonzero"/><path fill="#ff914d" d="M 302.605469 271.523438 L 266.1875 235.101562 C 265.761719 234.679688 265.304688 234.304688 264.808594 233.972656 C 264.308594 233.640625 263.785156 233.359375 263.234375 233.128906 C 262.679688 232.902344 262.113281 232.730469 261.523438 232.613281 C 260.9375 232.496094 260.347656 232.4375 259.75 232.4375 C 259.152344 232.4375 258.558594 232.496094 257.972656 232.613281 C 257.386719 232.730469 256.816406 232.902344 256.265625 233.128906 C 255.714844 233.359375 255.1875 233.640625 254.691406 233.972656 C 254.195312 234.304688 253.734375 234.679688 253.3125 235.101562 L 250.644531 237.769531 L 233.820312 220.945312 C 235.039062 219.453125 236.210938 217.925781 237.332031 216.359375 C 238.457031 214.792969 239.527344 213.195312 240.550781 211.558594 C 241.570312 209.925781 242.539062 208.261719 243.453125 206.566406 C 244.371094 204.871094 245.230469 203.148438 246.039062 201.398438 C 246.84375 199.648438 247.59375 197.875 248.289062 196.078125 C 248.984375 194.28125 249.621094 192.460938 250.199219 190.625 C 250.777344 188.785156 251.300781 186.933594 251.761719 185.0625 C 252.222656 183.191406 252.625 181.308594 252.964844 179.410156 C 253.308594 177.515625 253.589844 175.609375 253.8125 173.695312 C 254.03125 171.78125 254.191406 169.863281 254.292969 167.9375 C 254.390625 166.015625 254.429688 164.089844 254.40625 162.164062 C 254.386719 160.234375 254.300781 158.3125 254.15625 156.390625 C 254.011719 154.46875 253.808594 152.554688 253.542969 150.644531 C 253.277344 148.738281 252.949219 146.839844 252.566406 144.953125 C 252.179688 143.0625 251.734375 141.191406 251.230469 139.332031 C 250.722656 137.472656 250.160156 135.628906 249.539062 133.804688 C 248.917969 131.980469 248.238281 130.179688 247.503906 128.398438 C 246.765625 126.617188 245.976562 124.863281 245.128906 123.132812 C 244.28125 121.402344 243.378906 119.699219 242.425781 118.027344 C 241.46875 116.351562 240.464844 114.710938 239.40625 113.101562 C 238.34375 111.492188 237.238281 109.917969 236.078125 108.378906 C 234.917969 106.835938 233.710938 105.335938 232.457031 103.875 C 231.203125 102.410156 229.90625 100.988281 228.5625 99.609375 C 227.21875 98.226562 225.832031 96.890625 224.402344 95.597656 C 222.972656 94.304688 221.503906 93.058594 219.996094 91.859375 C 218.488281 90.660156 216.945312 89.511719 215.363281 88.410156 C 213.78125 87.308594 212.167969 86.257812 210.523438 85.257812 C 208.875 84.257812 207.195312 83.3125 205.488281 82.417969 C 203.78125 81.523438 202.046875 80.6875 200.289062 79.902344 C 198.527344 79.121094 196.742188 78.394531 194.9375 77.722656 C 193.128906 77.054688 191.304688 76.441406 189.460938 75.886719 C 187.613281 75.332031 185.753906 74.835938 183.875 74.402344 C 182 73.964844 180.109375 73.589844 178.210938 73.269531 C 176.308594 72.953125 174.402344 72.699219 172.484375 72.503906 C 170.566406 72.308594 168.644531 72.171875 166.722656 72.097656 C 164.796875 72.023438 162.871094 72.011719 160.945312 72.058594 C 159.015625 72.109375 157.09375 72.21875 155.175781 72.386719 C 153.253906 72.558594 151.34375 72.789062 149.4375 73.078125 C 147.535156 73.371094 145.640625 73.722656 143.757812 74.132812 C 141.875 74.542969 140.007812 75.015625 138.15625 75.542969 C 136.304688 76.074219 134.46875 76.660156 132.652344 77.308594 C 130.839844 77.953125 129.046875 78.65625 127.273438 79.414062 C 125.503906 80.175781 123.757812 80.988281 122.039062 81.859375 C 120.320312 82.730469 118.632812 83.652344 116.96875 84.632812 C 115.308594 85.609375 113.683594 86.636719 112.085938 87.71875 C 110.492188 88.796875 108.933594 89.929688 107.40625 91.109375 C 105.882812 92.285156 104.398438 93.511719 102.953125 94.785156 C 101.507812 96.058594 100.101562 97.378906 98.742188 98.742188 C 97.378906 100.101562 96.058594 101.507812 94.785156 102.953125 C 93.511719 104.398438 92.285156 105.882812 91.109375 107.40625 C 89.929688 108.933594 88.796875 110.492188 87.71875 112.085938 C 86.636719 113.683594 85.609375 115.308594 84.632812 116.96875 C 83.652344 118.632812 82.730469 120.320312 81.859375 122.039062 C 80.988281 123.757812 80.175781 125.503906 79.414062 127.273438 C 78.65625 129.046875 77.953125 130.839844 77.308594 132.652344 C 76.660156 134.46875 76.074219 136.304688 75.542969 138.15625 C 75.015625 140.007812 74.542969 141.875 74.132812 143.757812 C 73.722656 145.640625 73.371094 147.535156 73.078125 149.4375 C 72.789062 151.34375 72.558594 153.253906 72.386719 155.175781 C 72.21875 157.09375 72.109375 159.015625 72.058594 160.945312 C 72.011719 162.871094 72.023438 164.796875 72.097656 166.722656 C 72.171875 168.644531 72.308594 170.566406 72.503906 172.484375 C 72.699219 174.402344 72.953125 176.308594 73.269531 178.210938 C 73.589844 180.109375 73.964844 182 74.402344 183.875 C 74.835938 185.753906 75.332031 187.613281 75.886719 189.460938 C 76.441406 191.304688 77.054688 193.128906 77.722656 194.9375 C 78.394531 196.742188 79.121094 198.527344 79.902344 200.289062 C 80.6875 202.046875 81.523438 203.78125 82.417969 205.488281 C 83.3125 207.195312 84.257812 208.875 85.257812 210.523438 C 86.257812 212.167969 87.308594 213.78125 88.410156 215.363281 C 89.511719 216.945312 90.660156 218.488281 91.859375 219.996094 C 93.058594 221.503906 94.304688 222.972656 95.597656 224.402344 C 96.890625 225.832031 98.226562 227.21875 99.609375 228.5625 C 100.988281 229.90625 102.410156 231.203125 103.875 232.457031 C 105.335938 233.710938 106.835938 234.917969 108.378906 236.078125 C 109.917969 237.238281 111.492188 238.34375 113.101562 239.40625 C 114.710938 240.464844 116.351562 241.46875 118.027344 242.425781 C 119.699219 243.378906 121.402344 244.28125 123.132812 245.128906 C 124.863281 245.976562 126.617188 246.765625 128.398438 247.503906 C 130.179688 248.238281 131.980469 248.917969 133.804688 249.539062 C 135.628906 250.160156 137.472656 250.722656 139.332031 251.230469 C 141.191406 251.734375 143.0625 252.179688 144.953125 252.566406 C 146.839844 252.949219 148.738281 253.277344 150.644531 253.542969 C 152.554688 253.808594 154.46875 254.011719 156.390625 254.15625 C 158.3125 254.300781 160.234375 254.386719 162.164062 254.40625 C 164.089844 254.429688 166.015625 254.390625 167.9375 254.292969 C 169.863281 254.191406 171.78125 254.03125 173.695312 253.8125 C 175.609375 253.589844 177.515625 253.308594 179.410156 252.964844 C 181.308594 252.625 183.191406 252.222656 185.0625 251.761719 C 186.933594 251.300781 188.785156 250.777344 190.625 250.199219 C 192.460938 249.621094 194.28125 248.984375 196.078125 248.289062 C 197.875 247.59375 199.648438 246.84375 201.398438 246.039062 C 203.148438 245.230469 204.871094 244.371094 206.566406 243.453125 C 208.261719 242.539062 209.925781 241.570312 211.558594 240.550781 C 213.195312 239.527344 214.792969 238.457031 216.359375 237.332031 C 217.925781 236.210938 219.453125 235.039062 220.945312 233.820312 L 237.769531 250.644531 L 235.101562 253.3125 C 234.679688 253.734375 234.304688 254.195312 233.972656 254.691406 C 233.640625 255.1875 233.359375 255.714844 233.128906 256.265625 C 232.902344 256.816406 232.730469 257.386719 232.613281 257.972656 C 232.496094 258.558594 232.4375 259.152344 232.4375 259.75 C 232.4375 260.347656 232.496094 260.9375 232.613281 261.523438 C 232.730469 262.113281 232.902344 262.679688 233.128906 263.234375 C 233.359375 263.785156 233.640625 264.308594 233.972656 264.808594 C 234.304688 265.304688 234.679688 265.761719 235.101562 266.1875 L 271.523438 302.605469 C 272.03125 303.113281 272.5625 303.597656 273.121094 304.054688 C 273.675781 304.507812 274.253906 304.9375 274.851562 305.339844 C 275.449219 305.738281 276.066406 306.109375 276.703125 306.445312 C 277.335938 306.785156 277.988281 307.09375 278.652344 307.367188 C 279.316406 307.644531 279.992188 307.886719 280.683594 308.09375 C 281.371094 308.304688 282.070312 308.480469 282.773438 308.621094 C 283.480469 308.761719 284.191406 308.867188 284.910156 308.9375 C 285.625 309.007812 286.34375 309.042969 287.0625 309.042969 C 287.78125 309.042969 288.5 309.007812 289.21875 308.9375 C 289.933594 308.867188 290.644531 308.761719 291.351562 308.621094 C 292.058594 308.480469 292.753906 308.304688 293.441406 308.09375 C 294.132812 307.886719 294.808594 307.644531 295.472656 307.367188 C 296.140625 307.09375 296.789062 306.785156 297.425781 306.445312 C 298.058594 306.109375 298.675781 305.738281 299.273438 305.339844 C 299.871094 304.9375 300.449219 304.507812 301.007812 304.054688 C 301.5625 303.597656 302.09375 303.113281 302.605469 302.605469 C 303.113281 302.09375 303.597656 301.5625 304.054688 301.007812 C 304.511719 300.449219 304.9375 299.871094 305.339844 299.273438 C 305.738281 298.675781 306.109375 298.058594 306.445312 297.425781 C 306.785156 296.789062 307.09375 296.140625 307.367188 295.472656 C 307.644531 294.808594 307.886719 294.132812 308.097656 293.441406 C 308.304688 292.753906 308.480469 292.058594 308.621094 291.351562 C 308.761719 290.644531 308.867188 289.933594 308.9375 289.21875 C 309.007812 288.5 309.042969 287.78125 309.042969 287.0625 C 309.042969 286.34375 309.007812 285.625 308.9375 284.910156 C 308.867188 284.191406 308.761719 283.480469 308.621094 282.773438 C 308.480469 282.070312 308.304688 281.371094 308.097656 280.683594 C 307.886719 279.992188 307.644531 279.316406 307.367188 278.652344 C 307.09375 277.988281 306.785156 277.335938 306.445312 276.703125 C 306.109375 276.066406 305.738281 275.449219 305.339844 274.851562 C 304.9375 274.253906 304.511719 273.675781 304.054688 273.121094 C 303.597656 272.5625 303.113281 272.03125 302.605469 271.523438 Z M 163.367188 236.203125 C 162.175781 236.203125 160.984375 236.175781 159.792969 236.117188 C 158.605469 236.058594 157.414062 235.972656 156.230469 235.855469 C 155.042969 235.738281 153.859375 235.589844 152.679688 235.417969 C 151.503906 235.242188 150.328125 235.039062 149.160156 234.804688 C 147.988281 234.574219 146.828125 234.3125 145.671875 234.023438 C 144.515625 233.734375 143.367188 233.414062 142.226562 233.070312 C 141.085938 232.722656 139.953125 232.347656 138.832031 231.945312 C 137.707031 231.546875 136.597656 231.117188 135.496094 230.660156 C 134.394531 230.203125 133.304688 229.722656 132.226562 229.210938 C 131.148438 228.703125 130.085938 228.167969 129.035156 227.605469 C 127.980469 227.042969 126.945312 226.457031 125.921875 225.84375 C 124.902344 225.230469 123.894531 224.59375 122.902344 223.929688 C 121.910156 223.265625 120.9375 222.582031 119.980469 221.871094 C 119.023438 221.160156 118.082031 220.429688 117.160156 219.671875 C 116.238281 218.914062 115.335938 218.136719 114.453125 217.335938 C 113.570312 216.535156 112.707031 215.714844 111.867188 214.871094 C 111.023438 214.027344 110.199219 213.164062 109.398438 212.28125 C 108.601562 211.398438 107.820312 210.496094 107.066406 209.574219 C 106.308594 208.652344 105.574219 207.714844 104.867188 206.757812 C 104.15625 205.800781 103.46875 204.824219 102.808594 203.835938 C 102.144531 202.84375 101.507812 201.835938 100.894531 200.8125 C 100.28125 199.792969 99.695312 198.753906 99.132812 197.703125 C 98.570312 196.652344 98.035156 195.585938 97.523438 194.511719 C 97.015625 193.433594 96.53125 192.34375 96.078125 191.242188 C 95.621094 190.140625 95.191406 189.027344 94.789062 187.90625 C 94.386719 186.785156 94.015625 185.652344 93.667969 184.511719 C 93.320312 183.371094 93.003906 182.222656 92.714844 181.066406 C 92.425781 179.910156 92.164062 178.746094 91.929688 177.578125 C 91.699219 176.410156 91.496094 175.234375 91.320312 174.054688 C 91.144531 172.875 91 171.695312 90.882812 170.507812 C 90.765625 169.320312 90.679688 168.132812 90.621094 166.941406 C 90.5625 165.75 90.53125 164.558594 90.53125 163.367188 C 90.53125 162.175781 90.5625 160.984375 90.621094 159.792969 C 90.679688 158.605469 90.765625 157.414062 90.882812 156.230469 C 91 155.042969 91.144531 153.859375 91.320312 152.679688 C 91.496094 151.503906 91.699219 150.328125 91.929688 149.160156 C 92.164062 147.988281 92.425781 146.828125 92.714844 145.671875 C 93.003906 144.515625 93.320312 143.367188 93.667969 142.226562 C 94.015625 141.085938 94.386719 139.953125 94.789062 138.832031 C 95.191406 137.707031 95.621094 136.597656 96.078125 135.496094 C 96.53125 134.394531 97.015625 133.304688 97.523438 132.226562 C 98.035156 131.148438 98.570312 130.085938 99.132812 129.035156 C 99.695312 127.980469 100.28125 126.945312 100.894531 125.921875 C 101.507812 124.902344 102.144531 123.894531 102.808594 122.902344 C 103.46875 121.910156 104.15625 120.9375 104.867188 119.980469 C 105.574219 119.023438 106.308594 118.082031 107.066406 117.160156 C 107.820312 116.238281 108.601562 115.335938 109.398438 114.453125 C 110.199219 113.570312 111.023438 112.707031 111.867188 111.867188 C 112.707031 111.023438 113.570312 110.199219 114.453125 109.398438 C 115.335938 108.601562 116.238281 107.820312 117.160156 107.066406 C 118.082031 106.308594 119.023438 105.574219 119.980469 104.867188 C 120.9375 104.15625 121.910156 103.46875 122.902344 102.808594 C 123.894531 102.144531 124.902344 101.507812 125.921875 100.894531 C 126.945312 100.28125 127.980469 99.695312 129.035156 99.132812 C 130.085938 98.570312 131.148438 98.035156 132.226562 97.523438 C 133.304688 97.015625 134.394531 96.53125 135.496094 96.078125 C 136.597656 95.621094 137.707031 95.191406 138.832031 94.789062 C 139.953125 94.386719 141.085938 94.015625 142.226562 93.667969 C 143.367188 93.320312 144.515625 93.003906 145.671875 92.714844 C 146.828125 92.425781 147.988281 92.164062 149.160156 91.929688 C 150.328125 91.699219 151.503906 91.496094 152.679688 91.320312 C 153.859375 91.144531 155.042969 91 156.230469 90.882812 C 157.414062 90.765625 158.605469 90.679688 159.792969 90.621094 C 160.984375 90.5625 162.175781 90.53125 163.367188 90.53125 C 164.558594 90.53125 165.75 90.5625 166.941406 90.621094 C 168.132812 90.679688 169.320312 90.765625 170.507812 90.882812 C 171.695312 91 172.875 91.144531 174.054688 91.320312 C 175.234375 91.496094 176.410156 91.699219 177.578125 91.929688 C 178.746094 92.164062 179.910156 92.425781 181.066406 92.714844 C 182.222656 93.003906 183.371094 93.320312 184.511719 93.667969 C 185.652344 94.015625 186.785156 94.386719 187.90625 94.789062 C 189.027344 95.191406 190.140625 95.621094 191.242188 96.078125 C 192.34375 96.53125 193.433594 97.015625 194.511719 97.523438 C 195.585938 98.035156 196.652344 98.570312 197.703125 99.132812 C 198.753906 99.695312 199.792969 100.28125 200.8125 100.894531 C 201.835938 101.507812 202.84375 102.144531 203.835938 102.808594 C 204.824219 103.46875 205.800781 104.15625 206.757812 104.867188 C 207.714844 105.574219 208.652344 106.308594 209.574219 107.066406 C 210.496094 107.820312 211.398438 108.601562 212.28125 109.398438 C 213.164062 110.199219 214.027344 111.023438 214.871094 111.867188 C 215.714844 112.707031 216.535156 113.570312 217.335938 114.453125 C 218.136719 115.335938 218.914062 116.238281 219.671875 117.160156 C 220.429688 118.082031 221.160156 119.023438 221.871094 119.980469 C 222.582031 120.9375 223.265625 121.910156 223.929688 122.902344 C 224.59375 123.894531 225.230469 124.902344 225.84375 125.921875 C 226.457031 126.945312 227.042969 127.980469 227.605469 129.035156 C 228.167969 130.085938 228.703125 131.148438 229.210938 132.226562 C 229.722656 133.304688 230.203125 134.394531 230.660156 135.496094 C 231.117188 136.597656 231.546875 137.707031 231.945312 138.832031 C 232.347656 139.953125 232.722656 141.085938 233.070312 142.226562 C 233.414062 143.367188 233.734375 144.515625 234.023438 145.671875 C 234.3125 146.828125 234.574219 147.988281 234.804688 149.160156 C 235.039062 150.328125 235.242188 151.503906 235.417969 152.679688 C 235.589844 153.859375 235.738281 155.042969 235.855469 156.230469 C 235.972656 157.414062 236.058594 158.605469 236.117188 159.792969 C 236.175781 160.984375 236.203125 162.175781 236.203125 163.367188 C 236.203125 164.558594 236.171875 165.75 236.113281 166.941406 C 236.054688 168.132812 235.964844 169.320312 235.847656 170.503906 C 235.730469 171.691406 235.582031 172.875 235.40625 174.050781 C 235.230469 175.230469 235.023438 176.402344 234.792969 177.574219 C 234.558594 178.742188 234.296875 179.902344 234.007812 181.058594 C 233.714844 182.214844 233.398438 183.363281 233.050781 184.503906 C 232.703125 185.644531 232.328125 186.773438 231.925781 187.894531 C 231.523438 189.015625 231.09375 190.128906 230.640625 191.230469 C 230.183594 192.328125 229.699219 193.417969 229.1875 194.496094 C 228.679688 195.574219 228.144531 196.636719 227.582031 197.6875 C 227.019531 198.738281 226.429688 199.773438 225.816406 200.796875 C 225.203125 201.816406 224.566406 202.824219 223.90625 203.816406 C 223.242188 204.804688 222.554688 205.78125 221.847656 206.738281 C 221.136719 207.691406 220.402344 208.632812 219.648438 209.554688 C 218.890625 210.472656 218.113281 211.375 217.3125 212.257812 C 216.511719 213.140625 215.691406 214.003906 214.847656 214.847656 C 214.003906 215.691406 213.140625 216.511719 212.257812 217.3125 C 211.375 218.113281 210.472656 218.890625 209.554688 219.648438 C 208.632812 220.402344 207.695312 221.136719 206.738281 221.847656 C 205.78125 222.554688 204.804688 223.242188 203.816406 223.90625 C 202.824219 224.566406 201.816406 225.203125 200.796875 225.816406 C 199.773438 226.429688 198.738281 227.019531 197.6875 227.582031 C 196.636719 228.144531 195.574219 228.679688 194.496094 229.1875 C 193.417969 229.699219 192.328125 230.183594 191.230469 230.640625 C 190.128906 231.09375 189.015625 231.523438 187.894531 231.925781 C 186.773438 232.328125 185.644531 232.703125 184.503906 233.050781 C 183.363281 233.398438 182.214844 233.714844 181.058594 234.007812 C 179.902344 234.296875 178.742188 234.558594 177.574219 234.792969 C 176.402344 235.023438 175.230469 235.230469 174.050781 235.40625 C 172.875 235.582031 171.691406 235.730469 170.503906 235.847656 C 169.320312 235.964844 168.132812 236.054688 166.941406 236.113281 C 165.75 236.171875 164.558594 236.203125 163.367188 236.203125 Z M 163.367188 236.203125 " fill-opacity="1" fill-rule="nonzero"/><g fill="#ff914d" fill-opacity="1"><g transform="translate(187.499992, 244.46972)"><g><path d="M 2.09375 0.15625 C 1.632812 0.15625 1.289062 0.0195312 1.0625 -0.25 C 0.832031 -0.519531 0.71875 -0.847656 0.71875 -1.234375 C 0.71875 -1.628906 0.835938 -1.957031 1.078125 -2.21875 C 1.316406 -2.488281 1.65625 -2.625 2.09375 -2.625 C 2.53125 -2.625 2.875 -2.507812 3.125 -2.28125 C 3.382812 -2.0625 3.515625 -1.726562 3.515625 -1.28125 C 3.515625 -0.832031 3.394531 -0.476562 3.15625 -0.21875 C 2.914062 0.03125 2.5625 0.15625 2.09375 0.15625 Z M 2.09375 0.15625 "/></g></g></g></svg>